<svg width="64" height="64" viewBox="0 0 64 64" fill="none" xmlns="http://www.w3.org/2000/svg">
<g clip-path="url(#clip0_418_528)">
<rect y="64" width="64" height="64" rx="32" transform="rotate(-90 0 64)" fill="#FF9C00"/>
<path d="M30.6667 48C30.6667 48.7364 31.2636 49.3333 32 49.3333C32.7364 49.3333 33.3333 48.7364 33.3333 48L30.6667 48ZM32.9428 15.0572C32.4221 14.5365 31.5779 14.5365 31.0572 15.0572L22.5719 23.5425C22.0512 24.0632 22.0512 24.9074 22.5719 25.4281C23.0926 25.9488 23.9368 25.9488 24.4575 25.4281L32 17.8856L39.5425 25.4281C40.0632 25.9488 40.9074 25.9488 41.4281 25.4281C41.9488 24.9074 41.9488 24.0632 41.4281 23.5425L32.9428 15.0572ZM33.3333 48L33.3333 16L30.6667 16L30.6667 48L33.3333 48Z" fill="black"/>
</g>
<defs>
<clipPath id="clip0_418_528">
<rect width="64" height="64" fill="white" transform="translate(0 64) rotate(-90)"/>
</clipPath>
</defs>
</svg>
