<svg width="32" height="31" viewBox="0 0 32 31" fill="none" xmlns="http://www.w3.org/2000/svg">
<rect x="0.384766" y="0.121552" width="30.6846" height="30.6846" rx="15.3423" fill="#FF9C00"/>
<path d="M8.05591 14.8246C7.70285 14.8246 7.41665 15.1108 7.41665 15.4639C7.41665 15.8169 7.70285 16.1031 8.05591 16.1031V14.8246ZM23.8502 15.9159C24.0999 15.6662 24.0999 15.2615 23.8502 15.0118L19.782 10.9436C19.5323 10.6939 19.1276 10.6939 18.8779 10.9436C18.6283 11.1932 18.6283 11.598 18.8779 11.8476L22.4942 15.4639L18.8779 19.0801C18.6283 19.3297 18.6283 19.7345 18.8779 19.9841C19.1276 20.2338 19.5323 20.2338 19.782 19.9841L23.8502 15.9159ZM8.05591 16.1031H23.3982V14.8246H8.05591V16.1031Z" fill="black"/>
</svg>
