<svg width="24" height="24" viewBox="0 0 24 24" fill="none" xmlns="http://www.w3.org/2000/svg">
<g clip-path="url(#clip0_418_522)">
<path d="M20.3175 3.49295C18.7875 2.80295 17.1475 2.29295 15.4325 2.00295C15.4172 2.00002 15.4014 2.00191 15.3872 2.00836C15.3731 2.01481 15.3613 2.0255 15.3535 2.03895C15.1435 2.40795 14.9095 2.88895 14.7455 3.26895C12.9266 2.99719 11.0774 2.99719 9.25848 3.26895C9.07582 2.84781 8.86983 2.43717 8.64148 2.03895C8.63374 2.02533 8.62203 2.0144 8.60792 2.00761C8.5938 2.00082 8.57795 1.9985 8.56248 2.00095C6.84848 2.29095 5.20848 2.80095 3.67748 3.49195C3.66431 3.49747 3.65314 3.5069 3.64548 3.51895C0.533481 8.09395 -0.319519 12.556 0.0994806 16.962C0.100647 16.9727 0.103996 16.9832 0.109326 16.9926C0.114655 17.0021 0.121853 17.0104 0.130481 17.017C1.94687 18.3394 3.97282 19.3468 6.12348 19.997C6.13847 20.0016 6.15451 20.0016 6.16949 19.9969C6.18448 19.9923 6.19772 19.9832 6.20748 19.9709C6.67028 19.352 7.08038 18.6954 7.43348 18.0079C7.43838 17.9986 7.44121 17.9882 7.44176 17.9776C7.44232 17.967 7.4406 17.9565 7.43671 17.9466C7.43282 17.9367 7.42686 17.9278 7.41923 17.9205C7.4116 17.9131 7.40248 17.9075 7.39248 17.9039C6.74649 17.6607 6.12057 17.3671 5.52048 17.0259C5.5097 17.0198 5.50061 17.0111 5.49404 17.0005C5.48746 16.99 5.48361 16.978 5.48281 16.9656C5.48202 16.9532 5.48432 16.9408 5.48949 16.9295C5.49467 16.9183 5.50257 16.9084 5.51248 16.9009C5.63848 16.8079 5.76448 16.711 5.88448 16.614C5.89528 16.6052 5.90829 16.5997 5.92206 16.5979C5.93584 16.5961 5.94983 16.5982 5.96248 16.604C9.88948 18.368 14.1425 18.368 18.0235 16.604C18.0362 16.5979 18.0503 16.5955 18.0643 16.5971C18.0782 16.5987 18.0915 16.6042 18.1025 16.6129C18.2225 16.7109 18.3475 16.8079 18.4745 16.9009C18.4845 16.9083 18.4925 16.918 18.4979 16.9292C18.5032 16.9403 18.5057 16.9527 18.5051 16.9651C18.5045 16.9774 18.5008 16.9895 18.4945 17.0001C18.4881 17.0107 18.4791 17.0196 18.4685 17.0259C17.8705 17.3699 17.2485 17.661 16.5955 17.903C16.5855 17.9066 16.5763 17.9123 16.5687 17.9198C16.561 17.9272 16.5551 17.9362 16.5512 17.9462C16.5473 17.9561 16.5456 17.9668 16.5462 17.9774C16.5467 17.9881 16.5496 17.9985 16.5545 18.0079C16.9145 18.695 17.3265 19.3489 17.7795 19.9699C17.7889 19.9827 17.802 19.9922 17.8171 19.9972C17.8321 20.0022 17.8483 20.0025 17.8635 19.9979C20.0178 19.3496 22.0471 18.3417 23.8655 17.017C23.8744 17.0107 23.8818 17.0027 23.8873 16.9934C23.8928 16.9841 23.8963 16.9737 23.8975 16.9629C24.3975 11.8689 23.0595 7.44295 20.3485 3.52095C20.3418 3.5082 20.3308 3.49827 20.3175 3.49295ZM8.02048 14.2789C6.83848 14.2789 5.86348 13.2099 5.86348 11.8989C5.86348 10.5869 6.81948 9.51895 8.02048 9.51895C9.23048 9.51895 10.1965 10.5959 10.1775 11.8989C10.1775 13.2109 9.22148 14.2789 8.02048 14.2789ZM15.9955 14.2789C14.8125 14.2789 13.8385 13.2099 13.8385 11.8989C13.8385 10.5869 14.7935 9.51895 15.9955 9.51895C17.2055 9.51895 18.1715 10.5959 18.1525 11.8989C18.1525 13.2109 17.2065 14.2789 15.9955 14.2789Z" fill="white"/>
</g>
<defs>
<clipPath id="clip0_418_522">
<rect width="24" height="24" fill="white"/>
</clipPath>
</defs>
</svg>
