<svg width="1340" height="497" viewBox="0 0 1340 497" fill="none" xmlns="http://www.w3.org/2000/svg">
<g clip-path="url(#clip0_418_344)">
<rect width="1340" height="497" fill="#7700A1"/>
<g opacity="0.2">
<path opacity="0.010101" d="M452.337 220.805C446.77 215.04 445.548 206.346 449.311 199.269L688.443 -250.474C692.206 -257.55 700.097 -261.399 707.99 -260.008L1209.62 -171.557C1217.51 -170.165 1223.61 -163.85 1224.72 -155.913L1295.61 348.495C1296.73 356.432 1292.61 364.184 1285.4 367.698L827.59 590.989C820.386 594.502 811.74 592.978 806.172 587.212L452.337 220.805Z" stroke="url(#paint0_linear_418_344)" stroke-width="3"/>
<path opacity="0.020202" d="M446.943 214.642C441.477 208.781 440.407 200.066 444.292 193.056L690.761 -251.585C694.647 -258.595 702.604 -262.306 710.472 -260.776L1209.51 -163.772C1217.38 -162.243 1223.37 -155.822 1224.35 -147.867L1286.3 356.727C1287.28 364.682 1283.02 372.361 1275.76 375.748L815.008 590.6C807.744 593.987 799.125 592.312 793.659 586.45L446.943 214.642Z" stroke="url(#paint1_linear_418_344)" stroke-width="3"/>
<path opacity="0.030303" d="M441.687 208.489C436.324 202.533 435.406 193.801 439.413 186.86L693.114 -252.561C697.121 -259.502 705.142 -263.073 712.981 -261.407L1209.29 -155.913C1217.13 -154.246 1223.01 -147.721 1223.85 -139.751L1276.88 364.87C1277.72 372.841 1273.33 380.445 1266.01 383.705L802.477 590.083C795.155 593.343 786.567 591.517 781.204 585.561L441.687 208.489Z" stroke="url(#paint2_linear_418_344)" stroke-width="3"/>
<path opacity="0.040404" d="M436.569 202.349C431.311 196.3 430.545 187.554 434.673 180.684L695.498 -253.401C699.626 -260.271 707.708 -263.702 715.517 -261.899L1208.96 -147.98C1216.76 -146.177 1222.52 -139.55 1223.22 -131.566L1267.36 372.925C1268.06 380.909 1263.54 388.435 1256.16 391.566L789.999 589.44C782.622 592.571 774.067 590.596 768.809 584.547L436.569 202.349Z" stroke="url(#paint3_linear_418_344)" stroke-width="3"/>
<path opacity="0.050505" d="M431.588 196.222C426.436 190.082 425.824 181.324 430.071 174.527L697.911 -254.106C702.158 -260.903 710.299 -264.192 718.075 -262.253L1208.5 -139.978C1216.27 -138.039 1221.92 -131.313 1222.48 -123.318L1257.73 380.886C1258.29 388.882 1253.64 396.328 1246.21 399.33L777.578 588.669C770.147 591.672 761.627 589.548 756.476 583.408L431.588 196.222Z" stroke="url(#paint4_linear_418_344)" stroke-width="3"/>
<path opacity="0.0606061" d="M426.745 190.11C421.701 183.881 421.241 175.113 425.606 168.392L700.351 -254.678C704.716 -261.4 712.913 -264.546 720.655 -262.472L1207.92 -131.91C1215.66 -129.836 1221.19 -123.012 1221.6 -115.009L1248.01 388.753C1248.43 396.756 1243.64 404.12 1236.16 406.992L765.214 587.772C757.732 590.644 749.251 588.372 744.207 582.143L426.745 190.11Z" stroke="url(#paint5_linear_418_344)" stroke-width="3"/>
<path opacity="0.0707071" d="M422.038 184.017C417.103 177.701 416.797 168.926 421.279 162.282L702.816 -255.114C707.297 -261.758 715.548 -264.761 723.252 -262.552L1207.22 -123.777C1214.92 -121.568 1220.33 -114.649 1220.61 -106.639L1238.18 396.524C1238.46 404.534 1233.55 411.813 1226.02 414.554L752.91 586.751C745.379 589.492 736.939 587.072 732.005 580.757L422.038 184.017Z" stroke="url(#paint6_linear_418_344)" stroke-width="3"/>
<path opacity="0.0808081" d="M417.466 177.946C412.643 171.546 412.489 162.767 417.087 156.202L705.302 -255.412C709.899 -261.977 718.2 -264.836 725.865 -262.492L1206.4 -115.579C1214.06 -113.236 1219.34 -106.224 1219.48 -98.2105L1228.25 404.201C1228.39 412.214 1223.36 419.406 1215.78 422.015L740.668 585.609C733.09 588.219 724.694 585.652 719.871 579.251L417.466 177.946Z" stroke="url(#paint7_linear_418_344)" stroke-width="3"/>
<path opacity="0.0909091" d="M413.03 171.898C408.319 165.414 408.319 156.634 413.03 150.15L707.807 -255.576C712.518 -262.06 720.868 -264.773 728.491 -262.296L1205.45 -107.323C1213.07 -104.846 1218.23 -97.7427 1218.23 -89.7281V411.777C1218.23 419.792 1213.07 426.895 1205.45 429.372L728.491 584.345C720.868 586.822 712.518 584.109 707.807 577.625L413.03 171.898Z" stroke="url(#paint8_linear_418_344)" stroke-width="3"/>
<path opacity="0.10101" d="M408.728 165.875C404.131 159.31 404.285 150.531 409.108 144.131L710.33 -255.605C715.153 -262.005 723.55 -264.572 731.128 -261.963L1204.38 -99.0089C1211.96 -96.3996 1217 -89.2074 1216.86 -81.1939L1208.12 419.252C1207.98 427.266 1202.7 434.278 1195.03 436.621L716.38 582.96C708.715 585.303 700.413 582.445 695.816 575.879L408.728 165.875Z" stroke="url(#paint9_linear_418_344)" stroke-width="3"/>
<path opacity="0.111111" d="M404.561 159.883C400.079 153.238 400.385 144.464 405.32 138.148L712.867 -255.495C717.801 -261.811 726.241 -264.231 733.773 -261.489L1203.19 -90.6367C1210.72 -87.8955 1215.63 -80.6166 1215.35 -72.6068L1197.91 426.629C1197.63 434.639 1192.23 441.558 1184.53 443.767L704.336 581.459C696.632 583.668 688.382 580.665 683.9 574.02L404.561 159.883Z" stroke="url(#paint10_linear_418_344)" stroke-width="3"/>
<path opacity="0.121212" d="M400.526 153.918C396.161 147.196 396.62 138.429 401.664 132.2L715.416 -255.252C720.46 -261.481 728.941 -263.753 736.423 -260.881L1201.87 -82.2138C1209.35 -79.3415 1214.13 -71.978 1213.71 -63.9743L1187.62 433.9C1187.2 441.904 1181.67 448.727 1173.93 450.801L692.363 579.838C684.622 581.912 676.425 578.765 672.06 572.044L400.526 153.918Z" stroke="url(#paint11_linear_418_344)" stroke-width="3"/>
<path opacity="0.131313" d="M396.623 147.989C392.376 141.192 392.988 132.433 398.14 126.294L717.975 -254.871C723.127 -261.01 731.646 -263.134 739.077 -260.132L1200.42 -73.7373C1207.85 -70.7349 1212.5 -63.289 1211.95 -55.2939L1177.24 441.069C1176.68 449.064 1171.03 455.79 1163.26 457.729L680.462 578.103C672.686 580.042 664.545 576.753 660.298 569.956L396.623 147.989Z" stroke="url(#paint12_linear_418_344)" stroke-width="3"/>
<path opacity="0.141414" d="M392.852 142.094C388.724 135.224 389.489 126.477 394.747 120.428L720.541 -254.355C725.799 -260.403 734.354 -262.379 741.732 -259.247L1198.85 -65.2129C1206.23 -62.0813 1210.75 -54.5553 1210.05 -46.5712L1166.77 448.132C1166.07 456.116 1160.31 462.742 1152.5 464.545L668.635 576.254C660.826 578.057 652.744 574.626 648.616 567.756L392.852 142.094Z" stroke="url(#paint13_linear_418_344)" stroke-width="3"/>
<path opacity="0.151515" d="M389.211 136.235C385.204 129.294 386.122 120.562 391.484 114.606L723.112 -253.704C728.475 -259.66 737.063 -261.485 744.385 -258.225L1197.15 -56.6427C1204.47 -53.3828 1208.86 -45.779 1208.02 -37.8083L1156.22 455.087C1155.38 463.057 1149.5 469.582 1141.66 471.249L656.884 574.292C649.044 575.958 641.023 572.387 637.016 565.446L389.211 136.235Z" stroke="url(#paint14_linear_418_344)" stroke-width="3"/>
<path opacity="0.161616" d="M385.7 130.417C381.814 123.407 382.884 114.693 388.35 108.831L725.686 -252.917C731.151 -258.778 739.77 -260.453 747.034 -257.066L1195.32 -48.0277C1202.58 -44.6405 1206.84 -36.9613 1205.86 -29.0064L1145.58 461.934C1144.61 469.889 1138.62 476.31 1130.75 477.84L645.211 572.219C637.343 573.748 629.386 570.038 625.5 563.028L385.7 130.417Z" stroke="url(#paint15_linear_418_344)" stroke-width="3"/>
<path opacity="0.171717" d="M382.317 124.641C378.555 117.565 379.777 108.87 385.344 103.105L728.259 -251.994C733.826 -257.759 742.473 -259.283 749.676 -255.77L1193.36 -39.3703C1200.56 -35.8569 1204.69 -28.1046 1203.57 -20.1679L1134.87 468.673C1133.75 476.61 1127.65 482.925 1119.76 484.317L633.616 570.038C625.724 571.429 617.832 567.58 614.069 560.504L382.317 124.641Z" stroke="url(#paint16_linear_418_344)" stroke-width="3"/>
<path opacity="0.181818" d="M379.062 118.909C375.424 111.768 376.797 103.096 382.465 97.4287L730.829 -250.936C736.497 -256.603 745.169 -257.977 752.31 -254.338L1191.28 -30.6744C1198.42 -27.0358 1202.4 -19.2127 1201.15 -11.2967L1124.08 475.3C1122.83 483.216 1116.62 489.425 1108.7 490.678L622.104 567.748C614.188 569.002 606.365 565.015 602.726 557.874L379.062 118.909Z" stroke="url(#paint17_linear_418_344)" stroke-width="3"/>
<path opacity="0.191919" d="M375.934 113.223C372.42 106.02 373.945 97.3731 379.71 91.8056L733.395 -249.744C739.16 -255.311 747.855 -256.533 754.931 -252.771L1189.06 -21.941C1196.14 -18.1783 1199.98 -10.2869 1198.59 -2.394L1113.21 481.816C1111.82 489.709 1105.51 495.808 1097.57 496.924L610.674 565.352C602.738 566.468 594.985 562.346 591.472 555.142L375.934 113.223Z" stroke="url(#paint18_linear_418_344)" stroke-width="3"/>
<path opacity="0.20202" d="M372.931 107.583C369.543 100.32 371.219 91.7009 377.08 86.2349L735.954 -248.42C741.815 -253.886 750.53 -254.956 757.54 -251.07L1186.71 -13.1755C1193.72 -9.28988 1197.43 -1.33245 1195.9 6.53495L1102.27 488.217C1100.75 496.084 1094.32 502.072 1086.37 503.049L599.33 562.85C591.375 563.827 583.695 559.57 580.308 552.306L372.931 107.583Z" stroke="url(#paint19_linear_418_344)" stroke-width="3"/>
<path opacity="0.212121" d="M370.052 101.998C366.792 94.676 368.618 86.0879 374.574 80.725L738.503 -246.958C744.459 -252.321 753.191 -253.239 760.132 -249.231L1184.24 -4.37401C1191.18 -0.366661 1194.75 7.65431 1193.08 15.4938L1091.27 494.507C1089.6 502.347 1083.07 508.222 1075.1 509.059L588.071 560.249C580.1 561.086 572.497 556.696 569.237 549.375L370.052 101.998Z" stroke="url(#paint20_linear_418_344)" stroke-width="3"/>
<path opacity="0.222222" d="M367.297 96.4621C364.165 89.0845 366.14 80.5295 372.189 75.2714L741.04 -245.366C747.088 -250.624 755.835 -251.389 762.705 -247.261L1181.63 4.4544C1188.5 8.58228 1191.93 16.6644 1190.13 24.4736L1080.19 500.68C1078.38 508.489 1071.76 514.249 1063.77 514.948L576.901 557.543C568.917 558.242 561.391 553.72 558.259 546.342L367.297 96.4621Z" stroke="url(#paint21_linear_418_344)" stroke-width="3"/>
<path opacity="0.232323" d="M364.663 90.9825C361.661 83.5514 363.785 75.0322 369.924 69.8805L743.562 -243.639C749.702 -248.791 758.46 -249.403 765.257 -245.156L1178.89 13.3119C1185.69 17.5591 1188.98 25.6998 1187.04 33.4764L1069.04 506.738C1067.1 514.514 1060.38 520.158 1052.38 520.717L565.821 554.741C557.825 555.3 550.38 550.647 547.377 543.216L364.663 90.9825Z" stroke="url(#paint22_linear_418_344)" stroke-width="3"/>
<path opacity="0.242424" d="M362.15 85.5602C359.278 78.0778 361.551 69.597 367.779 64.5532L746.068 -241.779C752.297 -246.823 761.065 -247.283 767.787 -242.917L1176.02 22.1949C1182.75 26.56 1185.89 34.7568 1183.82 42.4984L1057.83 512.679C1055.76 520.421 1048.94 525.946 1040.93 526.366L554.832 551.841C546.828 552.261 539.464 547.479 536.592 539.996L362.15 85.5602Z" stroke="url(#paint23_linear_418_344)" stroke-width="3"/>
<path opacity="0.252525" d="M359.757 80.1952C357.016 72.6638 359.436 64.2239 365.752 59.2896L748.555 -239.789C754.871 -244.724 763.646 -245.03 770.29 -240.548L1173.02 31.0991C1179.67 35.5808 1182.67 43.8314 1180.46 51.5355L1046.56 518.502C1044.35 526.206 1037.43 531.611 1029.42 531.891L543.935 548.845C535.926 549.124 528.647 544.215 525.905 536.683L359.757 80.1952Z" stroke="url(#paint24_linear_418_344)" stroke-width="3"/>
<path opacity="0.262626" d="M357.482 74.8904C354.873 67.3124 357.44 58.916 363.841 54.0926L751.021 -237.669C757.422 -242.492 766.2 -242.645 772.766 -238.048L1169.89 40.0229C1176.46 44.62 1179.32 52.9217 1176.97 60.5861L1035.23 524.205C1032.89 531.869 1025.88 537.153 1017.86 537.293L533.133 545.754C525.12 545.894 517.928 540.858 515.318 533.28L357.482 74.8904Z" stroke="url(#paint25_linear_418_344)" stroke-width="3"/>
<path opacity="0.272727" d="M355.324 69.6501C352.848 62.0277 355.561 53.6774 362.045 48.9665L753.463 -235.415C759.947 -240.126 768.727 -240.126 775.211 -235.415L1166.63 48.9665C1173.11 53.6774 1175.83 62.0277 1173.35 69.6501L1023.84 529.79C1021.36 537.412 1014.26 542.573 1006.25 542.573L522.427 542.573C514.413 542.573 507.309 537.412 504.833 529.79L355.324 69.6501Z" stroke="url(#paint26_linear_418_344)" stroke-width="3"/>
<path opacity="0.282828" d="M353.282 64.4741C350.939 56.8096 353.797 48.5079 360.362 43.9109L755.879 -233.033C762.445 -237.63 771.223 -237.477 777.624 -232.653L1163.23 57.9251C1169.64 62.7484 1172.2 71.1448 1169.59 78.7228L1012.4 535.254C1009.79 542.832 1002.6 547.868 994.582 547.728L511.819 539.302C503.805 539.162 496.793 533.878 494.45 526.213L353.282 64.4741Z" stroke="url(#paint27_linear_418_344)" stroke-width="3"/>
<path opacity="0.292929" d="M351.354 59.3659C349.145 51.6617 352.148 43.4112 358.792 38.9294L758.268 -230.52C764.912 -235.002 773.687 -234.696 780.003 -229.761L1159.71 66.8981C1166.02 71.8324 1168.44 80.2723 1165.7 87.8036L1000.9 540.599C998.158 548.13 990.879 553.04 982.87 552.76L501.309 535.944C493.299 535.664 486.38 530.258 484.171 522.554L351.354 59.3659Z" stroke="url(#paint28_linear_418_344)" stroke-width="3"/>
<path opacity="0.30303" d="M349.538 54.3238C347.464 46.5822 350.61 38.3854 357.332 34.0203L760.625 -227.881C767.347 -232.246 776.115 -231.787 782.344 -226.743L1156.05 75.8794C1162.28 80.9232 1164.55 89.404 1161.68 96.8863L989.351 545.819C986.479 553.301 979.115 558.083 971.112 557.664L490.899 532.497C482.895 532.078 476.072 526.552 473.997 518.811L349.538 54.3238Z" stroke="url(#paint29_linear_418_344)" stroke-width="3"/>
<path opacity="0.313131" d="M347.834 49.3546C345.895 41.578 349.184 33.4373 355.981 29.1902L762.951 -225.113C769.747 -229.36 778.506 -228.747 784.646 -223.595L1152.26 84.8715C1158.4 90.0233 1160.53 98.5425 1157.52 105.974L977.754 550.919C974.752 558.35 967.306 563.003 959.311 562.444L480.59 528.969C472.595 528.41 465.869 522.766 463.93 514.989L347.834 49.3546Z" stroke="url(#paint30_linear_418_344)" stroke-width="3"/>
<path opacity="0.323232" d="M346.24 44.455C344.437 36.6457 347.868 28.5636 354.738 24.4358L765.241 -222.219C772.111 -226.347 780.857 -225.582 786.906 -220.324L1148.34 93.8672C1154.39 99.1253 1156.37 107.68 1153.23 115.058L966.11 555.894C962.979 563.271 955.453 567.793 947.469 567.095L470.384 525.355C462.4 524.657 455.773 518.897 453.971 511.087L346.24 44.455Z" stroke="url(#paint31_linear_418_344)" stroke-width="3"/>
<path opacity="0.333333" d="M344.754 39.6316C343.088 31.792 346.659 23.7711 353.6 19.7638L767.495 -219.198C774.435 -223.206 783.167 -222.288 789.123 -216.925L1144.29 102.869C1150.25 108.232 1152.07 116.82 1148.81 124.141L954.423 560.747C951.163 568.069 943.559 572.459 935.588 571.621L460.282 521.664C452.311 520.827 445.787 514.952 444.12 507.112L344.754 39.6316Z" stroke="url(#paint32_linear_418_344)" stroke-width="3"/>
<path opacity="0.343434" d="M343.375 34.8827C341.845 27.0153 345.556 19.0579 352.566 15.1723L769.709 -216.054C776.718 -219.939 785.433 -218.869 791.294 -213.403L1140.11 111.87C1145.97 117.336 1147.64 125.955 1144.26 133.219L942.693 565.475C939.306 572.739 931.627 576.995 923.672 576.019L450.285 517.894C442.33 516.917 435.909 510.929 434.379 503.062L343.375 34.8827Z" stroke="url(#paint33_linear_418_344)" stroke-width="3"/>
<path opacity="0.353535" d="M342.101 30.213C340.709 22.3201 344.558 14.4287 351.634 10.666L771.882 -212.783C778.958 -216.546 787.653 -215.324 793.418 -209.757L1135.79 120.873C1141.56 126.44 1143.08 135.087 1139.57 142.29L930.924 570.08C927.411 577.283 919.659 581.405 911.722 580.29L440.394 514.049C432.458 512.934 426.142 506.834 424.75 498.941L342.101 30.213Z" stroke="url(#paint34_linear_418_344)" stroke-width="3"/>
<path opacity="0.363636" d="M340.93 25.6214C339.677 17.7054 343.663 9.88232 350.804 6.24374L774.011 -209.391C781.152 -213.03 789.824 -211.656 795.491 -205.989L1131.35 129.87C1137.02 135.537 1138.39 144.209 1134.75 151.351L919.118 574.558C915.479 581.699 907.656 585.685 899.74 584.431L430.611 510.129C422.695 508.875 416.487 502.666 415.233 494.75L340.93 25.6214Z" stroke="url(#paint35_linear_418_344)" stroke-width="3"/>
<path opacity="0.373737" d="M339.862 21.112C338.747 13.1753 342.869 5.42299 350.072 1.90959L776.095 -205.876C783.299 -209.389 791.945 -207.865 797.513 -202.099L1126.78 138.864C1132.34 144.629 1133.57 153.324 1129.8 160.4L907.277 578.912C903.514 585.989 895.623 589.838 887.73 588.446L420.937 506.138C413.044 504.746 406.945 498.43 405.829 490.493L339.862 21.112Z" stroke="url(#paint36_linear_418_344)" stroke-width="3"/>
<path opacity="0.383838" d="M338.894 16.6835C337.917 8.72858 342.174 1.0494 349.438 -2.33775L778.132 -202.241C785.396 -205.628 794.014 -203.953 799.48 -198.091L1122.07 147.847C1127.54 153.709 1128.61 162.424 1124.72 169.433L895.403 583.139C891.518 590.149 883.56 593.859 875.693 592.33L411.372 502.075C403.504 500.546 397.516 494.124 396.54 486.169L338.894 16.6835Z" stroke="url(#paint37_linear_418_344)" stroke-width="3"/>
<path opacity="0.393939" d="M338.024 12.3404C337.187 4.36959 341.577 -3.23411 348.898 -6.494L780.119 -198.486C787.44 -201.745 796.028 -199.92 801.391 -193.964L1117.24 156.822C1122.6 162.778 1123.52 171.51 1119.51 178.451L883.499 587.24C879.492 594.181 871.471 597.752 863.631 596.086L401.917 497.946C394.078 496.279 388.203 489.754 387.365 481.784L338.024 12.3404Z" stroke="url(#paint38_linear_418_344)" stroke-width="3"/>
<path opacity="0.40404" d="M337.252 8.08092C336.554 0.0967444 341.076 -7.42921 348.453 -10.5608L782.054 -194.613C789.432 -197.745 797.987 -195.77 803.245 -189.721L1112.28 165.782C1117.54 171.831 1118.3 180.578 1114.17 187.448L871.568 591.213C867.44 598.083 859.358 601.514 851.548 599.711L392.575 493.749C384.765 491.946 379.005 485.319 378.307 477.335L337.252 8.08092Z" stroke="url(#paint39_linear_418_344)" stroke-width="3"/>
<path opacity="0.414141" d="M336.575 3.91171C336.016 -4.08347 340.668 -11.5293 348.099 -14.5317L783.935 -190.621C791.366 -193.623 799.886 -191.499 805.037 -185.359L1107.19 174.731C1112.34 180.87 1112.95 189.629 1108.71 196.426L859.61 595.063C855.363 601.859 847.222 605.149 839.445 603.21L383.344 489.491C375.567 487.552 369.924 480.826 369.365 472.831L336.575 3.91171Z" stroke="url(#paint40_linear_418_344)" stroke-width="3"/>
<path opacity="0.424242" d="M335.991 -0.169368C335.571 -8.17306 340.353 -15.5366 347.836 -18.4088L785.761 -186.513C793.243 -189.385 801.724 -187.112 806.768 -180.884L1101.97 183.661C1107.01 189.89 1107.47 198.658 1103.11 205.379L847.629 598.784C843.264 605.506 835.067 608.652 827.325 606.578L374.227 485.171C366.486 483.096 360.96 476.273 360.541 468.269L335.991 -0.169368Z" stroke="url(#paint41_linear_418_344)" stroke-width="3"/>
<path opacity="0.434343" d="M335.499 -4.16077C335.219 -12.1706 340.129 -19.4495 347.66 -22.1907L787.53 -182.29C795.061 -185.031 803.501 -182.611 808.435 -176.295L1096.63 192.572C1101.56 198.887 1101.87 207.662 1097.38 214.306L835.627 602.378C831.145 609.023 822.895 612.026 815.191 609.816L365.225 480.791C357.521 478.582 352.115 471.663 351.835 463.653L335.499 -4.16077Z" stroke="url(#paint42_linear_418_344)" stroke-width="3"/>
<path opacity="0.444444" d="M335.097 -8.05971C334.957 -16.0732 339.993 -23.2654 347.571 -25.8747L789.238 -177.953C796.816 -180.562 805.213 -177.995 810.036 -171.594L1091.15 201.461C1095.98 207.862 1096.13 216.641 1091.53 223.206L823.606 605.846C819.009 612.411 810.708 615.269 803.043 612.926L356.337 476.354C348.673 474.011 343.389 466.999 343.249 458.986L335.097 -8.05971Z" stroke="url(#paint43_linear_418_344)" stroke-width="3"/>
<path opacity="0.454545" d="M334.783 -11.8646C334.783 -19.8792 339.943 -26.9824 347.566 -29.4591L790.885 -173.502C798.508 -175.979 806.858 -173.266 811.569 -166.782L1085.56 210.328C1090.27 216.812 1090.27 225.592 1085.56 232.076L811.569 609.187C806.858 615.671 798.508 618.384 790.886 615.907L347.566 471.864C339.943 469.387 334.783 462.284 334.783 454.269L334.783 -11.8646Z" stroke="url(#paint44_linear_418_344)" stroke-width="3"/>
<path opacity="0.464646" d="M334.555 -15.5759C334.695 -23.5893 339.978 -30.6014 347.643 -32.9446L792.469 -168.942C800.134 -171.285 808.436 -168.427 813.033 -161.861L1079.83 219.168C1084.43 225.734 1084.28 234.512 1079.45 240.913L799.518 612.4C794.695 618.801 786.298 621.368 778.72 618.758L338.911 467.32C331.333 464.71 326.297 457.518 326.437 449.505L334.555 -15.5759Z" stroke="url(#paint45_linear_418_344)" stroke-width="3"/>
<path opacity="0.474747" d="M334.411 -19.1921C334.691 -27.2019 340.096 -34.1206 347.8 -36.3298L793.988 -164.272C801.692 -166.481 809.943 -163.478 814.425 -156.834L1073.98 227.98C1078.47 234.624 1078.16 243.399 1073.23 249.714L787.455 615.485C782.52 621.8 774.081 624.22 766.549 621.479L330.373 462.724C322.842 459.983 317.932 452.704 318.212 444.694L334.411 -19.1921Z" stroke="url(#paint46_linear_418_344)" stroke-width="3"/>
<path opacity="0.484848" d="M334.35 -22.7106C334.769 -30.7143 340.295 -37.5377 348.036 -39.612L795.44 -159.493C803.181 -161.568 811.378 -158.421 815.743 -151.7L1068.01 236.761C1072.38 243.483 1071.92 252.251 1066.87 258.479L775.382 618.443C770.338 624.671 761.857 626.944 754.375 624.072L321.953 458.08C314.471 455.208 309.689 447.845 310.108 439.841L334.35 -22.7106Z" stroke="url(#paint47_linear_418_344)" stroke-width="3"/>
<path opacity="0.494949" d="M334.369 -26.1314C334.928 -34.1266 340.572 -40.8524 348.348 -42.7913L796.823 -154.609C804.599 -156.547 812.74 -153.258 816.987 -146.462L1061.92 245.51C1066.17 252.306 1065.55 261.065 1060.4 267.205L763.302 621.273C758.15 627.413 749.631 629.537 742.2 626.535L313.652 453.39C306.221 450.388 301.568 442.942 302.127 434.947L334.369 -26.1314Z" stroke="url(#paint48_linear_418_344)" stroke-width="3"/>
<path opacity="0.50505" d="M334.467 -29.4502C335.166 -37.4344 340.926 -44.0608 348.735 -45.8637L798.135 -149.616C805.945 -151.419 814.027 -147.988 818.154 -141.118L1055.7 254.226C1059.83 261.095 1059.06 269.842 1053.81 275.891L751.217 623.979C745.959 630.028 737.404 632.003 730.027 628.871L305.47 448.658C298.092 445.526 293.57 438 294.269 430.016L334.467 -29.4502Z" stroke="url(#paint49_linear_418_344)" stroke-width="3"/>
<path opacity="0.515152" d="M334.641 -32.669C335.479 -40.6398 341.354 -47.1646 349.194 -48.8309L799.375 -144.52C807.215 -146.186 815.236 -142.615 819.243 -135.674L1049.36 262.904C1053.37 269.845 1052.45 278.577 1047.09 284.533L739.129 626.557C733.766 632.513 725.178 634.339 717.856 631.079L297.407 443.883C290.086 440.623 285.696 433.019 286.533 425.049L334.641 -32.669Z" stroke="url(#paint50_linear_418_344)" stroke-width="3"/>
<path opacity="0.525253" d="M334.891 -35.7865C335.868 -43.7414 341.856 -50.1627 349.723 -51.692L800.542 -139.322C808.409 -140.851 816.366 -137.141 820.252 -130.131L1042.9 271.543C1046.79 278.553 1045.72 287.268 1040.25 293.129L727.041 629.008C721.575 634.87 712.957 636.545 705.693 633.158L289.465 439.068C282.201 435.681 277.945 428.002 278.922 420.047L334.891 -35.7865Z" stroke="url(#paint51_linear_418_344)" stroke-width="3"/>
<path opacity="0.535354" d="M335.213 -38.7998C336.328 -46.7365 342.427 -53.0523 350.32 -54.4441L801.632 -134.022C809.525 -135.414 817.416 -131.565 821.179 -124.489L1036.33 280.143C1040.09 287.22 1038.87 295.914 1033.3 301.679L714.955 631.334C709.388 637.099 700.741 638.624 693.537 635.11L281.644 434.216C274.44 430.703 270.318 422.951 271.434 415.014L335.213 -38.7998Z" stroke="url(#paint52_linear_418_344)" stroke-width="3"/>
<path opacity="0.545455" d="M335.606 -41.7095C336.859 -49.6256 343.068 -55.834 350.984 -57.0877L802.645 -128.624C810.561 -129.878 818.384 -125.892 822.023 -118.75L1029.63 288.699C1033.27 295.84 1031.89 304.512 1026.23 310.179L702.873 633.533C697.205 639.2 688.534 640.574 681.392 636.935L273.943 429.329C266.802 425.691 262.816 417.868 264.07 409.952L335.606 -41.7095Z" stroke="url(#paint53_linear_418_344)" stroke-width="3"/>
<path opacity="0.555556" d="M336.067 -44.5144C337.459 -52.4073 343.775 -58.5065 351.711 -59.6219L803.579 -123.128C811.516 -124.243 819.268 -120.121 822.782 -112.918L1022.81 297.21C1026.33 304.413 1024.8 313.06 1019.04 318.627L690.797 635.606C685.031 641.174 676.337 642.396 669.26 638.633L266.364 424.409C259.287 420.646 255.438 412.755 256.83 404.862L336.067 -44.5144Z" stroke="url(#paint54_linear_418_344)" stroke-width="3"/>
<path opacity="0.565657" d="M336.595 -47.2114C338.125 -55.0789 344.546 -61.0668 352.501 -62.0436L804.433 -117.534C812.388 -118.511 820.067 -114.254 823.454 -106.99L1015.88 305.675C1019.27 312.939 1017.6 321.558 1011.73 327.024L678.729 637.556C672.868 643.022 664.153 644.092 657.143 640.206L258.906 419.46C251.896 415.574 248.186 407.617 249.715 399.749L336.595 -47.2114Z" stroke="url(#paint55_linear_418_344)" stroke-width="3"/>
<path opacity="0.575758" d="M337.188 -49.8032C338.854 -57.6428 345.379 -63.5177 353.35 -64.3555L805.205 -111.847C813.175 -112.685 820.779 -108.295 824.039 -100.973L1008.84 314.09C1012.1 321.412 1010.27 330 1004.32 335.363L666.672 639.378C660.716 644.741 651.984 645.659 645.044 641.652L251.57 414.48C244.63 410.472 241.058 402.451 242.725 394.612L337.188 -49.8032Z" stroke="url(#paint56_linear_418_344)" stroke-width="3"/>
<path opacity="0.585859" d="M337.844 -52.285C339.647 -60.0943 346.273 -65.8545 354.257 -66.553L805.893 -106.066C813.877 -106.765 821.403 -102.243 824.535 -94.8649L1001.68 322.456C1004.81 329.834 1002.83 338.389 996.785 343.647L654.629 641.078C648.58 646.336 639.834 647.102 632.964 642.974L244.357 409.476C237.487 405.348 234.057 397.266 235.86 389.456L337.844 -52.285Z" stroke="url(#paint57_linear_418_344)" stroke-width="3"/>
<path opacity="0.59596" d="M338.56 -54.6588C340.499 -62.4354 347.224 -68.0791 355.22 -68.6382L806.496 -100.195C814.491 -100.754 821.937 -96.1009 824.94 -88.6698L994.404 330.768C997.406 338.199 995.282 346.719 989.142 351.87L642.6 642.654C636.461 647.805 627.702 648.418 620.905 644.171L237.266 404.447C230.469 400.199 227.18 392.059 229.119 384.282L338.56 -54.6588Z" stroke="url(#paint58_linear_418_344)" stroke-width="3"/>
<path opacity="0.606061" d="M339.334 -56.9222C341.409 -64.6638 348.232 -70.1893 356.236 -70.6087L807.013 -94.233C815.017 -94.6524 822.38 -89.8705 825.253 -82.3881L987.018 339.026C989.891 346.509 987.618 354.99 981.39 360.033L630.589 644.106C624.36 649.15 615.592 649.609 608.871 645.244L230.298 399.396C223.577 395.031 220.43 386.834 222.504 379.093L339.334 -56.9222Z" stroke="url(#paint59_linear_418_344)" stroke-width="3"/>
<path opacity="0.616162" d="M340.165 -59.0756C342.374 -66.7798 349.293 -72.1853 357.303 -72.465L807.442 -88.1842C815.452 -88.4639 822.731 -83.5542 825.472 -76.0228L979.522 347.227C982.264 354.759 979.843 363.199 973.528 368.133L618.597 645.435C612.281 650.37 603.507 650.676 596.862 646.194L223.453 394.326C216.808 389.844 213.805 381.594 216.014 373.89L340.165 -59.0756Z" stroke="url(#paint60_linear_418_344)" stroke-width="3"/>
<path opacity="0.626263" d="M341.05 -61.1161C343.393 -68.7805 350.406 -74.0645 358.419 -74.2044L807.782 -82.0481C815.795 -82.1879 822.987 -77.1519 825.596 -69.5739L971.917 355.372C974.526 362.95 971.959 371.346 965.558 376.169L606.627 646.644C600.226 651.467 591.447 651.62 584.882 647.023L216.73 389.24C210.165 384.643 207.306 376.341 209.649 368.677L341.05 -61.1161Z" stroke="url(#paint61_linear_418_344)" stroke-width="3"/>
<path opacity="0.636364" d="M341.988 -63.0441C344.464 -70.6665 351.567 -75.8273 359.582 -75.8273L808.031 -75.8273C816.045 -75.8273 823.148 -70.6666 825.625 -63.0441L964.203 363.456C966.68 371.078 963.967 379.428 957.483 384.139L594.68 647.731C588.196 652.442 579.416 652.442 572.932 647.731L210.13 384.139C203.646 379.428 200.933 371.078 203.409 363.456L341.988 -63.0441Z" stroke="url(#paint62_linear_418_344)" stroke-width="3"/>
<path opacity="0.646465" d="M342.975 -64.8608C345.584 -72.4389 352.776 -77.4749 360.79 -77.335L808.188 -69.5257C816.201 -69.3858 823.213 -64.1018 825.556 -56.4373L956.383 371.476C958.726 379.141 955.867 387.443 949.302 392.04L582.76 648.695C576.194 653.293 567.416 653.139 561.015 648.316L203.653 379.024C197.252 374.201 194.685 365.805 197.294 358.227L342.975 -64.8608Z" stroke="url(#paint63_linear_418_344)" stroke-width="3"/>
<path opacity="0.656566" d="M344.01 -66.5629C346.751 -74.0942 354.03 -79.004 362.04 -78.7243L808.252 -63.1422C816.261 -62.8625 823.18 -57.457 825.389 -49.7528L948.457 379.435C950.666 387.139 947.663 395.389 941.018 399.871L570.867 649.541C564.222 654.023 555.448 653.717 549.132 648.782L197.298 373.9C190.983 368.965 188.563 360.526 191.304 352.994L344.01 -66.5629Z" stroke="url(#paint64_linear_418_344)" stroke-width="3"/>
<path opacity="0.666667" d="M345.092 -68.1528C347.964 -75.6351 355.327 -80.4171 363.331 -79.9976L808.221 -56.682C816.225 -56.2625 823.048 -50.737 825.123 -42.9954L940.427 387.325C942.501 395.067 939.355 403.264 932.633 407.629L559.005 650.266C552.283 654.631 543.515 654.172 537.286 649.128L191.067 368.765C184.839 363.721 182.566 355.24 185.438 347.758L345.092 -68.1528Z" stroke="url(#paint65_linear_418_344)" stroke-width="3"/>
<path opacity="0.676768" d="M346.216 -69.6261C349.218 -77.0572 356.664 -81.7099 364.659 -81.1508L808.095 -50.1428C816.09 -49.5837 822.816 -43.94 824.755 -36.1634L932.294 395.151C934.233 402.927 930.943 411.068 924.147 415.315L547.174 650.874C540.377 655.121 531.618 654.509 525.479 649.357L184.958 363.626C178.818 358.474 176.694 349.955 179.697 342.524L346.216 -69.6261Z" stroke="url(#paint66_linear_418_344)" stroke-width="3"/>
<path opacity="0.686869" d="M347.382 -70.985C350.514 -78.3626 358.04 -82.8846 366.024 -82.1861L807.872 -43.5294C815.856 -42.8308 822.483 -37.0706 824.285 -29.2613L924.059 402.907C925.862 410.716 922.432 418.798 915.562 422.926L535.377 651.364C528.507 655.491 519.761 654.726 513.712 649.468L178.971 358.482C172.923 353.224 170.947 344.669 174.079 337.292L347.382 -70.985Z" stroke="url(#paint67_linear_418_344)" stroke-width="3"/>
<path opacity="0.69697" d="M348.588 -72.2286C351.848 -79.5503 359.452 -83.9403 367.422 -83.1026L807.551 -36.8432C815.522 -36.0054 822.047 -30.1304 823.713 -22.2909L915.725 410.591C917.392 418.431 913.82 426.452 906.88 430.459L523.617 651.736C516.676 655.743 507.944 654.825 501.988 649.463L173.107 353.337C167.151 347.974 165.326 339.386 168.586 332.064L348.588 -72.2286Z" stroke="url(#paint68_linear_418_344)" stroke-width="3"/>
<path opacity="0.707071" d="M349.831 -73.3541C353.218 -80.6179 360.897 -84.8745 368.852 -83.8977L807.132 -30.0838C815.086 -29.1071 821.508 -23.1191 823.037 -15.2517L907.293 418.206C908.822 426.074 905.111 434.031 898.102 437.917L511.895 651.994C504.885 655.88 496.171 654.81 490.309 649.344L167.365 348.193C161.503 342.727 159.828 334.109 163.215 326.845L349.831 -73.3541Z" stroke="url(#paint69_linear_418_344)" stroke-width="3"/>
<path opacity="0.717172" d="M351.109 -74.3652C354.622 -81.5688 362.375 -85.6908 370.311 -84.5754L806.612 -23.2574C814.548 -22.1419 820.864 -16.0428 822.256 -8.14986L898.763 425.745C900.155 433.638 896.306 441.529 889.23 445.292L500.213 652.135C493.137 655.898 484.442 654.676 478.677 649.109L161.744 343.05C155.979 337.483 154.454 328.836 157.968 321.633L351.109 -74.3652Z" stroke="url(#paint70_linear_418_344)" stroke-width="3"/>
<path opacity="0.727273" d="M352.42 -75.2577C356.058 -82.3988 363.881 -86.3849 371.797 -85.1311L805.991 -16.3616C813.907 -15.1078 820.115 -8.89945 821.369 -0.983414L890.138 433.21C891.392 441.126 887.406 448.949 880.265 452.588L488.574 652.164C481.432 655.803 472.76 654.43 467.093 648.762L156.245 337.914C150.578 332.247 149.204 323.575 152.843 316.434L352.42 -75.2577Z" stroke="url(#paint71_linear_418_344)" stroke-width="3"/>
<path opacity="0.737374" d="M353.761 -76.0338C357.524 -83.1104 365.416 -86.9593 373.308 -85.5675L805.268 -9.40142C813.161 -8.00969 819.26 -1.69389 820.375 6.24282L881.42 440.597C882.535 448.534 878.413 456.286 871.21 459.8L476.978 652.079C469.774 655.593 461.128 654.068 455.56 648.303L150.867 332.784C145.3 327.019 144.078 318.324 147.84 311.247L353.761 -76.0338Z" stroke="url(#paint72_linear_418_344)" stroke-width="3"/>
<path opacity="0.747475" d="M355.131 -76.691C359.017 -83.7008 366.974 -87.4114 374.842 -85.8821L804.442 -2.37632C812.309 -0.847048 818.297 5.57423 819.274 13.5292L872.609 447.908C873.586 455.863 869.329 463.542 862.065 466.929L465.428 651.884C458.164 655.271 449.546 653.596 444.08 647.734L145.609 327.664C140.143 321.803 139.073 313.088 142.959 306.078L355.131 -76.691Z" stroke="url(#paint73_linear_418_344)" stroke-width="3"/>
<path opacity="0.757576" d="M356.528 -77.2326C360.535 -84.1735 368.556 -87.7447 376.396 -86.0783L803.512 4.70799C811.351 6.37436 817.226 12.8992 818.064 20.87L863.707 455.136C864.545 463.107 860.155 470.71 852.833 473.97L453.926 651.575C446.605 654.835 438.016 653.01 432.654 647.053L140.472 322.553C135.109 316.597 134.192 307.865 138.199 300.924L356.528 -77.2326Z" stroke="url(#paint74_linear_418_344)" stroke-width="3"/>
<path opacity="0.767677" d="M357.949 -77.6547C362.077 -84.5247 370.159 -87.9553 377.968 -86.1524L802.478 11.8533C810.287 13.6562 816.047 20.2825 816.745 28.2667L854.717 462.284C855.416 470.269 850.894 477.795 843.516 480.926L442.475 651.158C435.097 654.29 426.542 652.315 421.284 646.266L135.455 317.457C130.197 311.409 129.432 302.662 133.56 295.792L357.949 -77.6547Z" stroke="url(#paint75_linear_418_344)" stroke-width="3"/>
<path opacity="0.777778" d="M359.392 -77.958C363.639 -84.7548 371.78 -88.0438 379.556 -86.1049L801.337 19.0569C809.114 20.9958 814.757 27.7217 815.317 35.7169L845.639 469.351C846.198 477.346 841.546 484.792 834.115 487.794L431.074 650.633C423.643 653.636 415.124 651.511 409.972 645.372L130.557 312.378C125.405 306.238 124.793 297.479 129.04 290.683L359.392 -77.958Z" stroke="url(#paint76_linear_418_344)" stroke-width="3"/>
<path opacity="0.787879" d="M360.855 -78.1427C365.22 -84.8644 373.417 -88.0109 381.158 -85.9365L800.091 26.316C807.832 28.3904 813.358 35.2137 813.777 43.2174L836.476 476.334C836.895 484.337 832.113 491.701 824.631 494.573L419.727 650.001C412.245 652.873 403.764 650.601 398.72 644.372L125.777 307.316C120.734 301.087 120.274 292.319 124.639 285.598L360.855 -78.1427Z" stroke="url(#paint77_linear_418_344)" stroke-width="3"/>
<path opacity="0.79798" d="M362.335 -78.2112C366.817 -84.8557 375.068 -87.8586 382.772 -85.6495L798.737 33.6265C806.441 35.8357 811.846 42.7544 812.126 50.7642L827.228 483.229C827.508 491.238 822.598 498.517 815.067 501.258L408.435 649.26C400.904 652.001 392.464 649.581 387.53 643.266L121.116 302.271C116.182 295.956 115.875 287.181 120.357 280.537L362.335 -78.2112Z" stroke="url(#paint78_linear_418_344)" stroke-width="3"/>
<path opacity="0.808081" d="M363.832 -78.159C368.429 -84.7242 376.73 -87.5827 384.395 -85.2395L797.275 40.9906C804.94 43.3339 810.224 50.346 810.363 58.3594L817.898 490.039C818.038 498.053 813.002 505.245 805.424 507.854L397.201 648.417C389.623 651.026 381.227 648.459 376.403 642.058L116.572 297.251C111.749 290.85 111.596 282.071 116.193 275.506L363.832 -78.159Z" stroke="url(#paint79_linear_418_344)" stroke-width="3"/>
<path opacity="0.818182" d="M365.341 -77.9903C370.052 -84.4743 378.402 -87.1875 386.025 -84.7108L795.705 48.4023C803.327 50.879 808.488 57.9821 808.488 65.9968L808.488 496.76C808.488 504.774 803.327 511.878 795.705 514.354L386.025 647.467C378.402 649.944 370.052 647.231 365.341 640.747L112.145 292.252C107.434 285.768 107.434 276.988 112.145 270.504L365.341 -77.9903Z" stroke="url(#paint80_linear_418_344)" stroke-width="3"/>
<path opacity="0.828283" d="M366.862 -77.7018C371.686 -84.1026 380.082 -86.6697 387.66 -84.0604L794.025 55.8625C801.603 58.4718 806.639 65.6639 806.499 73.6774L798.999 503.392C798.859 511.406 793.575 518.418 785.91 520.761L374.909 646.417C367.245 648.76 358.943 645.901 354.346 639.336L107.834 287.281C103.237 280.716 103.391 271.937 108.214 265.536L366.862 -77.7018Z" stroke="url(#paint81_linear_418_344)" stroke-width="3"/>
<path opacity="0.838384" d="M368.393 -77.2962C373.327 -83.6118 381.767 -86.0319 389.298 -83.2908L792.236 63.3667C799.768 66.1079 804.677 73.3868 804.398 81.3967L789.433 509.933C789.153 517.943 783.748 524.862 776.043 527.071L363.856 645.264C356.152 647.473 347.902 644.47 343.42 637.825L103.639 282.336C99.1576 275.691 99.464 266.917 104.398 260.601L368.393 -77.2962Z" stroke="url(#paint82_linear_418_344)" stroke-width="3"/>
<path opacity="0.848485" d="M369.93 -76.7705C374.973 -82.9991 383.454 -85.2715 390.937 -82.3993L790.337 70.9159C797.819 73.7881 802.601 81.1517 802.181 89.1554L779.791 516.384C779.372 524.388 773.846 531.211 766.105 533.286L352.867 644.013C345.125 646.087 336.929 642.94 332.563 636.219L99.5585 277.423C95.1934 270.701 95.6529 261.933 100.697 255.704L369.93 -76.7705Z" stroke="url(#paint83_linear_418_344)" stroke-width="3"/>
<path opacity="0.858586" d="M371.472 -76.1284C376.623 -82.2681 385.143 -84.3921 392.574 -81.3898L788.326 78.5046C795.757 81.5069 800.41 88.9528 799.851 96.948L770.077 522.741C769.518 530.736 763.874 537.462 756.097 539.401L341.943 642.661C334.167 644.6 326.026 641.311 321.779 634.514L95.5919 272.539C91.3448 265.743 91.9572 256.984 97.109 250.844L371.472 -76.1284Z" stroke="url(#paint84_linear_418_344)" stroke-width="3"/>
<path opacity="0.868687" d="M373.017 -75.3675C378.275 -81.4162 386.83 -83.3913 394.207 -80.2597L786.204 86.1332C793.582 89.2648 798.104 96.7907 797.406 104.775L760.29 529.005C759.592 536.989 753.831 543.615 746.022 545.418L331.087 641.214C323.277 643.017 315.195 639.586 311.067 632.716L91.7383 267.691C87.6104 260.821 88.3756 252.075 93.6337 246.026L373.017 -75.3675Z" stroke="url(#paint85_linear_418_344)" stroke-width="3"/>
<path opacity="0.878788" d="M374.562 -74.4879C379.925 -80.444 388.513 -82.2694 395.835 -79.0096L783.971 93.7997C791.293 97.0596 795.683 104.663 794.845 112.634L750.434 535.174C749.597 543.145 743.722 549.67 735.882 551.336L320.299 639.671C312.459 641.338 304.438 637.766 300.431 630.826L87.997 262.879C83.9896 255.938 84.9074 247.206 90.2703 241.25L374.562 -74.4879Z" stroke="url(#paint86_linear_418_344)" stroke-width="3"/>
<path opacity="0.888889" d="M376.106 -73.492C381.572 -79.3536 390.191 -81.0289 397.455 -77.6417L781.625 101.5C788.889 104.887 793.145 112.566 792.169 120.521L740.51 541.247C739.533 549.202 733.545 555.623 725.678 557.152L309.581 638.033C301.713 639.563 293.756 635.852 289.87 628.842L84.3667 258.104C80.4811 251.094 81.5511 242.38 87.0171 236.518L376.106 -73.492Z" stroke="url(#paint87_linear_418_344)" stroke-width="3"/>
<path opacity="0.89899" d="M377.646 -72.3784C383.214 -78.1437 391.86 -79.6683 399.064 -76.1549L779.166 109.233C786.37 112.747 790.492 120.499 789.376 128.436L730.52 547.223C729.404 555.159 723.305 561.475 715.412 562.867L298.935 636.303C291.042 637.695 283.15 633.846 279.387 626.77L80.8467 253.369C77.084 246.292 78.306 237.598 83.8735 231.832L377.646 -72.3784Z" stroke="url(#paint88_linear_418_344)" stroke-width="3"/>
<path opacity="0.909091" d="M379.181 -71.1464C384.848 -76.8136 393.52 -78.1871 400.662 -74.5485L776.595 116.999C783.736 120.638 787.722 128.461 786.468 136.377L720.466 553.102C719.212 561.018 713.003 567.227 705.087 568.481L288.362 634.483C280.446 635.737 272.623 631.751 268.984 624.61L77.4365 248.677C73.7979 241.535 75.1714 232.863 80.8386 227.196L379.181 -71.1464Z" stroke="url(#paint89_linear_418_344)" stroke-width="3"/>
<path opacity="0.919192" d="M380.709 -69.8009C386.474 -75.3683 395.168 -76.5903 402.245 -72.8276L773.911 124.791C780.987 128.553 784.836 136.445 783.444 144.338L710.349 558.88C708.958 566.773 702.642 572.872 694.705 573.988L277.864 632.571C269.928 633.686 262.175 629.564 258.662 622.361L74.1349 244.025C70.6215 236.821 72.1461 228.174 77.9114 222.607L380.709 -69.8009Z" stroke="url(#paint90_linear_418_344)" stroke-width="3"/>
<path opacity="0.929293" d="M382.226 -68.3375C388.087 -73.8035 396.802 -74.8735 403.812 -70.9879L771.113 132.61C778.122 136.496 781.833 144.453 780.304 152.321L700.173 564.56C698.643 572.427 692.222 578.415 684.267 579.392L267.442 630.572C259.487 631.549 251.808 627.292 248.421 620.028L70.9403 239.42C67.5531 232.156 69.2284 223.537 75.09 218.071L382.226 -68.3375Z" stroke="url(#paint91_linear_418_344)" stroke-width="3"/>
<path opacity="0.939394" d="M383.731 -66.7585C389.687 -72.1214 398.419 -73.0391 405.36 -69.0318L768.201 140.454C775.142 144.462 778.713 152.483 777.047 160.322L689.937 570.139C688.271 577.979 681.746 583.854 673.775 584.692L257.098 628.486C249.127 629.324 241.524 624.934 238.264 617.612L67.8523 234.862C64.5924 227.54 66.4179 218.952 72.3739 213.589L383.731 -66.7585Z" stroke="url(#paint92_linear_418_344)" stroke-width="3"/>
<path opacity="0.949495" d="M385.222 -65.0626C391.271 -70.3207 400.018 -71.0859 406.888 -66.9581L765.175 148.323C772.045 152.451 775.476 160.533 773.673 168.342L679.645 575.619C677.843 583.428 671.216 589.188 663.232 589.887L246.833 626.317C238.848 627.016 231.322 622.494 228.191 615.116L64.8692 230.354C61.7376 222.977 63.7127 214.422 69.7614 209.164L385.222 -65.0626Z" stroke="url(#paint93_linear_418_344)" stroke-width="3"/>
<path opacity="0.959596" d="M386.698 -63.2549C392.838 -68.4066 401.596 -69.0191 408.393 -64.7719L762.036 156.208C768.832 160.456 772.122 168.596 770.183 176.373L669.299 580.993C667.361 588.77 660.635 594.414 652.639 594.973L236.648 624.062C228.653 624.621 221.207 619.968 218.204 612.537L61.9907 225.894C58.9883 218.463 61.1124 209.944 67.252 204.792L386.698 -63.2549Z" stroke="url(#paint94_linear_418_344)" stroke-width="3"/>
<path opacity="0.969697" d="M388.156 -61.3312C394.385 -66.375 403.152 -66.8345 409.874 -62.4694L758.782 164.114C765.504 168.479 768.65 176.676 766.576 184.418L658.901 586.267C656.826 594.008 650.003 599.534 641.999 599.953L226.545 621.726C218.541 622.146 211.177 617.364 208.305 609.881L59.2151 221.489C56.3428 214.006 58.6153 205.526 64.8439 200.482L388.156 -61.3312Z" stroke="url(#paint95_linear_418_344)" stroke-width="3"/>
<path opacity="0.979798" d="M389.594 -59.2965C395.909 -64.2308 404.684 -64.5373 411.328 -60.0555L755.414 172.033C762.059 176.515 765.062 184.766 762.852 192.47L648.451 591.434C646.242 599.138 639.323 604.544 631.314 604.824L216.524 619.308C208.514 619.588 201.235 614.678 198.494 607.147L56.5412 217.135C53.8 209.603 56.2201 201.163 62.5358 196.229L389.594 -59.2965Z" stroke="url(#paint96_linear_418_344)" stroke-width="3"/>
<path opacity="0.989899" d="M391.009 -57.1464C397.41 -61.9698 406.189 -62.123 412.754 -57.526L751.932 179.969C758.497 184.566 761.356 192.868 759.013 200.532L637.953 596.5C635.61 604.164 628.598 609.448 620.584 609.588L206.588 616.814C198.574 616.954 191.382 611.918 188.773 604.34L53.9679 212.839C51.3586 205.261 53.9256 196.864 60.3264 192.041L391.009 -57.1464Z" stroke="url(#paint97_linear_418_344)" stroke-width="3"/>
<path d="M392.401 -54.8846C398.885 -59.5955 407.665 -59.5955 414.149 -54.8846L748.336 187.916C754.82 192.627 757.533 200.977 755.056 208.6L627.409 601.46C624.932 609.082 617.829 614.243 609.814 614.243H196.737C188.722 614.243 181.619 609.082 179.142 601.46L51.4942 208.6C49.0176 200.977 51.7307 192.627 58.2147 187.916L392.401 -54.8846Z" stroke="url(#paint98_linear_418_344)" stroke-width="3"/>
</g>
</g>
<defs>
<linearGradient id="paint0_linear_418_344" x1="932.853" y1="412.165" x2="857.031" y2="-127.337" gradientUnits="userSpaceOnUse">
<stop stop-color="#FF1CF7"/>
<stop offset="1" stop-color="#00F0FF"/>
</linearGradient>
<linearGradient id="paint1_linear_418_344" x1="923.155" y1="413.977" x2="856.881" y2="-125.779" gradientUnits="userSpaceOnUse">
<stop stop-color="#FF1CF7"/>
<stop offset="1" stop-color="#00F0FF"/>
</linearGradient>
<linearGradient id="paint2_linear_418_344" x1="913.463" y1="415.707" x2="856.724" y2="-124.135" gradientUnits="userSpaceOnUse">
<stop stop-color="#FF1CF7"/>
<stop offset="1" stop-color="#00F0FF"/>
</linearGradient>
<linearGradient id="paint3_linear_418_344" x1="903.78" y1="417.356" x2="856.557" y2="-122.404" gradientUnits="userSpaceOnUse">
<stop stop-color="#FF1CF7"/>
<stop offset="1" stop-color="#00F0FF"/>
</linearGradient>
<linearGradient id="paint4_linear_418_344" x1="894.107" y1="418.922" x2="856.38" y2="-120.588" gradientUnits="userSpaceOnUse">
<stop stop-color="#FF1CF7"/>
<stop offset="1" stop-color="#00F0FF"/>
</linearGradient>
<linearGradient id="paint5_linear_418_344" x1="884.444" y1="420.405" x2="856.191" y2="-118.688" gradientUnits="userSpaceOnUse">
<stop stop-color="#FF1CF7"/>
<stop offset="1" stop-color="#00F0FF"/>
</linearGradient>
<linearGradient id="paint6_linear_418_344" x1="874.794" y1="421.807" x2="855.989" y2="-116.704" gradientUnits="userSpaceOnUse">
<stop stop-color="#FF1CF7"/>
<stop offset="1" stop-color="#00F0FF"/>
</linearGradient>
<linearGradient id="paint7_linear_418_344" x1="865.158" y1="423.129" x2="855.771" y2="-114.634" gradientUnits="userSpaceOnUse">
<stop stop-color="#FF1CF7"/>
<stop offset="1" stop-color="#00F0FF"/>
</linearGradient>
<linearGradient id="paint8_linear_418_344" x1="855.537" y1="424.369" x2="855.537" y2="-112.481" gradientUnits="userSpaceOnUse">
<stop stop-color="#FF1CF7"/>
<stop offset="1" stop-color="#00F0FF"/>
</linearGradient>
<linearGradient id="paint9_linear_418_344" x1="845.933" y1="425.528" x2="855.285" y2="-110.247" gradientUnits="userSpaceOnUse">
<stop stop-color="#FF1CF7"/>
<stop offset="1" stop-color="#00F0FF"/>
</linearGradient>
<linearGradient id="paint10_linear_418_344" x1="836.347" y1="426.61" x2="855.013" y2="-107.927" gradientUnits="userSpaceOnUse">
<stop stop-color="#FF1CF7"/>
<stop offset="1" stop-color="#00F0FF"/>
</linearGradient>
<linearGradient id="paint11_linear_418_344" x1="826.78" y1="427.609" x2="854.721" y2="-105.527" gradientUnits="userSpaceOnUse">
<stop stop-color="#FF1CF7"/>
<stop offset="1" stop-color="#00F0FF"/>
</linearGradient>
<linearGradient id="paint12_linear_418_344" x1="817.235" y1="428.533" x2="854.406" y2="-103.043" gradientUnits="userSpaceOnUse">
<stop stop-color="#FF1CF7"/>
<stop offset="1" stop-color="#00F0FF"/>
</linearGradient>
<linearGradient id="paint13_linear_418_344" x1="807.711" y1="429.377" x2="854.068" y2="-100.479" gradientUnits="userSpaceOnUse">
<stop stop-color="#FF1CF7"/>
<stop offset="1" stop-color="#00F0FF"/>
</linearGradient>
<linearGradient id="paint14_linear_418_344" x1="798.212" y1="430.142" x2="853.705" y2="-97.8352" gradientUnits="userSpaceOnUse">
<stop stop-color="#FF1CF7"/>
<stop offset="1" stop-color="#00F0FF"/>
</linearGradient>
<linearGradient id="paint15_linear_418_344" x1="788.737" y1="430.831" x2="853.315" y2="-95.1106" gradientUnits="userSpaceOnUse">
<stop stop-color="#FF1CF7"/>
<stop offset="1" stop-color="#00F0FF"/>
</linearGradient>
<linearGradient id="paint16_linear_418_344" x1="779.289" y1="431.444" x2="852.897" y2="-92.306" gradientUnits="userSpaceOnUse">
<stop stop-color="#FF1CF7"/>
<stop offset="1" stop-color="#00F0FF"/>
</linearGradient>
<linearGradient id="paint17_linear_418_344" x1="769.868" y1="431.98" x2="852.45" y2="-89.4233" gradientUnits="userSpaceOnUse">
<stop stop-color="#FF1CF7"/>
<stop offset="1" stop-color="#00F0FF"/>
</linearGradient>
<linearGradient id="paint18_linear_418_344" x1="760.476" y1="432.442" x2="851.973" y2="-86.4622" gradientUnits="userSpaceOnUse">
<stop stop-color="#FF1CF7"/>
<stop offset="1" stop-color="#00F0FF"/>
</linearGradient>
<linearGradient id="paint19_linear_418_344" x1="751.114" y1="432.826" x2="851.463" y2="-83.4262" gradientUnits="userSpaceOnUse">
<stop stop-color="#FF1CF7"/>
<stop offset="1" stop-color="#00F0FF"/>
</linearGradient>
<linearGradient id="paint20_linear_418_344" x1="741.784" y1="433.14" x2="850.921" y2="-80.3098" gradientUnits="userSpaceOnUse">
<stop stop-color="#FF1CF7"/>
<stop offset="1" stop-color="#00F0FF"/>
</linearGradient>
<linearGradient id="paint21_linear_418_344" x1="732.486" y1="433.378" x2="850.344" y2="-77.1204" gradientUnits="userSpaceOnUse">
<stop stop-color="#FF1CF7"/>
<stop offset="1" stop-color="#00F0FF"/>
</linearGradient>
<linearGradient id="paint22_linear_418_344" x1="723.222" y1="433.545" x2="849.731" y2="-73.8543" gradientUnits="userSpaceOnUse">
<stop stop-color="#FF1CF7"/>
<stop offset="1" stop-color="#00F0FF"/>
</linearGradient>
<linearGradient id="paint23_linear_418_344" x1="713.994" y1="433.64" x2="849.081" y2="-70.5135" gradientUnits="userSpaceOnUse">
<stop stop-color="#FF1CF7"/>
<stop offset="1" stop-color="#00F0FF"/>
</linearGradient>
<linearGradient id="paint24_linear_418_344" x1="704.801" y1="433.663" x2="848.393" y2="-67.1006" gradientUnits="userSpaceOnUse">
<stop stop-color="#FF1CF7"/>
<stop offset="1" stop-color="#00F0FF"/>
</linearGradient>
<linearGradient id="paint25_linear_418_344" x1="695.647" y1="433.615" x2="847.665" y2="-63.6156" gradientUnits="userSpaceOnUse">
<stop stop-color="#FF1CF7"/>
<stop offset="1" stop-color="#00F0FF"/>
</linearGradient>
<linearGradient id="paint26_linear_418_344" x1="686.531" y1="433.499" x2="846.897" y2="-60.057" gradientUnits="userSpaceOnUse">
<stop stop-color="#FF1CF7"/>
<stop offset="1" stop-color="#00F0FF"/>
</linearGradient>
<linearGradient id="paint27_linear_418_344" x1="677.455" y1="433.314" x2="846.087" y2="-56.4279" gradientUnits="userSpaceOnUse">
<stop stop-color="#FF1CF7"/>
<stop offset="1" stop-color="#00F0FF"/>
</linearGradient>
<linearGradient id="paint28_linear_418_344" x1="668.42" y1="433.063" x2="845.233" y2="-52.7276" gradientUnits="userSpaceOnUse">
<stop stop-color="#FF1CF7"/>
<stop offset="1" stop-color="#00F0FF"/>
</linearGradient>
<linearGradient id="paint29_linear_418_344" x1="659.427" y1="432.742" x2="844.335" y2="-48.9605" gradientUnits="userSpaceOnUse">
<stop stop-color="#FF1CF7"/>
<stop offset="1" stop-color="#00F0FF"/>
</linearGradient>
<linearGradient id="paint30_linear_418_344" x1="650.478" y1="432.357" x2="843.392" y2="-45.1227" gradientUnits="userSpaceOnUse">
<stop stop-color="#FF1CF7"/>
<stop offset="1" stop-color="#00F0FF"/>
</linearGradient>
<linearGradient id="paint31_linear_418_344" x1="641.573" y1="431.905" x2="842.402" y2="-41.2203" gradientUnits="userSpaceOnUse">
<stop stop-color="#FF1CF7"/>
<stop offset="1" stop-color="#00F0FF"/>
</linearGradient>
<linearGradient id="paint32_linear_418_344" x1="632.713" y1="431.391" x2="841.365" y2="-37.2493" gradientUnits="userSpaceOnUse">
<stop stop-color="#FF1CF7"/>
<stop offset="1" stop-color="#00F0FF"/>
</linearGradient>
<linearGradient id="paint33_linear_418_344" x1="623.9" y1="430.812" x2="840.279" y2="-33.2143" gradientUnits="userSpaceOnUse">
<stop stop-color="#FF1CF7"/>
<stop offset="1" stop-color="#00F0FF"/>
</linearGradient>
<linearGradient id="paint34_linear_418_344" x1="615.134" y1="430.172" x2="839.143" y2="-29.1134" gradientUnits="userSpaceOnUse">
<stop stop-color="#FF1CF7"/>
<stop offset="1" stop-color="#00F0FF"/>
</linearGradient>
<linearGradient id="paint35_linear_418_344" x1="606.417" y1="429.47" x2="837.956" y2="-24.9504" gradientUnits="userSpaceOnUse">
<stop stop-color="#FF1CF7"/>
<stop offset="1" stop-color="#00F0FF"/>
</linearGradient>
<linearGradient id="paint36_linear_418_344" x1="597.75" y1="428.709" x2="836.717" y2="-20.7238" gradientUnits="userSpaceOnUse">
<stop stop-color="#FF1CF7"/>
<stop offset="1" stop-color="#00F0FF"/>
</linearGradient>
<linearGradient id="paint37_linear_418_344" x1="589.133" y1="427.886" x2="835.426" y2="-16.4376" gradientUnits="userSpaceOnUse">
<stop stop-color="#FF1CF7"/>
<stop offset="1" stop-color="#00F0FF"/>
</linearGradient>
<linearGradient id="paint38_linear_418_344" x1="580.567" y1="427.007" x2="834.08" y2="-12.0902" gradientUnits="userSpaceOnUse">
<stop stop-color="#FF1CF7"/>
<stop offset="1" stop-color="#00F0FF"/>
</linearGradient>
<linearGradient id="paint39_linear_418_344" x1="572.054" y1="426.068" x2="832.68" y2="-7.68574" gradientUnits="userSpaceOnUse">
<stop stop-color="#FF1CF7"/>
<stop offset="1" stop-color="#00F0FF"/>
</linearGradient>
<linearGradient id="paint40_linear_418_344" x1="563.594" y1="425.075" x2="831.223" y2="-3.22043" gradientUnits="userSpaceOnUse">
<stop stop-color="#FF1CF7"/>
<stop offset="1" stop-color="#00F0FF"/>
</linearGradient>
<linearGradient id="paint41_linear_418_344" x1="555.189" y1="424.027" x2="829.71" y2="1.30102" gradientUnits="userSpaceOnUse">
<stop stop-color="#FF1CF7"/>
<stop offset="1" stop-color="#00F0FF"/>
</linearGradient>
<linearGradient id="paint42_linear_418_344" x1="546.839" y1="422.924" x2="828.14" y2="5.87755" gradientUnits="userSpaceOnUse">
<stop stop-color="#FF1CF7"/>
<stop offset="1" stop-color="#00F0FF"/>
</linearGradient>
<linearGradient id="paint43_linear_418_344" x1="538.544" y1="421.768" x2="826.511" y2="10.5093" gradientUnits="userSpaceOnUse">
<stop stop-color="#FF1CF7"/>
<stop offset="1" stop-color="#00F0FF"/>
</linearGradient>
<linearGradient id="paint44_linear_418_344" x1="530.307" y1="420.562" x2="824.823" y2="15.1955" gradientUnits="userSpaceOnUse">
<stop stop-color="#FF1CF7"/>
<stop offset="1" stop-color="#00F0FF"/>
</linearGradient>
<linearGradient id="paint45_linear_418_344" x1="522.127" y1="419.304" x2="823.074" y2="19.9329" gradientUnits="userSpaceOnUse">
<stop stop-color="#FF1CF7"/>
<stop offset="1" stop-color="#00F0FF"/>
</linearGradient>
<linearGradient id="paint46_linear_418_344" x1="514.005" y1="417.995" x2="821.265" y2="24.7207" gradientUnits="userSpaceOnUse">
<stop stop-color="#FF1CF7"/>
<stop offset="1" stop-color="#00F0FF"/>
</linearGradient>
<linearGradient id="paint47_linear_418_344" x1="505.942" y1="416.638" x2="819.393" y2="29.5587" gradientUnits="userSpaceOnUse">
<stop stop-color="#FF1CF7"/>
<stop offset="1" stop-color="#00F0FF"/>
</linearGradient>
<linearGradient id="paint48_linear_418_344" x1="497.94" y1="415.233" x2="817.459" y2="34.4448" gradientUnits="userSpaceOnUse">
<stop stop-color="#FF1CF7"/>
<stop offset="1" stop-color="#00F0FF"/>
</linearGradient>
<linearGradient id="paint49_linear_418_344" x1="489.998" y1="413.784" x2="815.462" y2="39.3806" gradientUnits="userSpaceOnUse">
<stop stop-color="#FF1CF7"/>
<stop offset="1" stop-color="#00F0FF"/>
</linearGradient>
<linearGradient id="paint50_linear_418_344" x1="482.117" y1="412.29" x2="813.401" y2="44.3619" gradientUnits="userSpaceOnUse">
<stop stop-color="#FF1CF7"/>
<stop offset="1" stop-color="#00F0FF"/>
</linearGradient>
<linearGradient id="paint51_linear_418_344" x1="474.298" y1="410.75" x2="811.275" y2="49.3874" gradientUnits="userSpaceOnUse">
<stop stop-color="#FF1CF7"/>
<stop offset="1" stop-color="#00F0FF"/>
</linearGradient>
<linearGradient id="paint52_linear_418_344" x1="466.542" y1="409.169" x2="809.083" y2="54.4577" gradientUnits="userSpaceOnUse">
<stop stop-color="#FF1CF7"/>
<stop offset="1" stop-color="#00F0FF"/>
</linearGradient>
<linearGradient id="paint53_linear_418_344" x1="458.85" y1="407.546" x2="806.826" y2="59.5699" gradientUnits="userSpaceOnUse">
<stop stop-color="#FF1CF7"/>
<stop offset="1" stop-color="#00F0FF"/>
</linearGradient>
<linearGradient id="paint54_linear_418_344" x1="451.221" y1="405.883" x2="804.502" y2="64.7229" gradientUnits="userSpaceOnUse">
<stop stop-color="#FF1CF7"/>
<stop offset="1" stop-color="#00F0FF"/>
</linearGradient>
<linearGradient id="paint55_linear_418_344" x1="443.656" y1="404.182" x2="802.111" y2="69.9174" gradientUnits="userSpaceOnUse">
<stop stop-color="#FF1CF7"/>
<stop offset="1" stop-color="#00F0FF"/>
</linearGradient>
<linearGradient id="paint56_linear_418_344" x1="436.157" y1="402.441" x2="799.652" y2="75.1487" gradientUnits="userSpaceOnUse">
<stop stop-color="#FF1CF7"/>
<stop offset="1" stop-color="#00F0FF"/>
</linearGradient>
<linearGradient id="paint57_linear_418_344" x1="428.723" y1="400.665" x2="797.124" y2="80.4192" gradientUnits="userSpaceOnUse">
<stop stop-color="#FF1CF7"/>
<stop offset="1" stop-color="#00F0FF"/>
</linearGradient>
<linearGradient id="paint58_linear_418_344" x1="421.355" y1="398.854" x2="794.528" y2="85.7247" gradientUnits="userSpaceOnUse">
<stop stop-color="#FF1CF7"/>
<stop offset="1" stop-color="#00F0FF"/>
</linearGradient>
<linearGradient id="paint59_linear_418_344" x1="414.055" y1="397.008" x2="791.863" y2="91.0655" gradientUnits="userSpaceOnUse">
<stop stop-color="#FF1CF7"/>
<stop offset="1" stop-color="#00F0FF"/>
</linearGradient>
<linearGradient id="paint60_linear_418_344" x1="406.821" y1="395.13" x2="789.127" y2="96.4392" gradientUnits="userSpaceOnUse">
<stop stop-color="#FF1CF7"/>
<stop offset="1" stop-color="#00F0FF"/>
</linearGradient>
<linearGradient id="paint61_linear_418_344" x1="399.654" y1="393.221" x2="786.321" y2="101.846" gradientUnits="userSpaceOnUse">
<stop stop-color="#FF1CF7"/>
<stop offset="1" stop-color="#00F0FF"/>
</linearGradient>
<linearGradient id="paint62_linear_418_344" x1="392.555" y1="391.282" x2="783.444" y2="107.285" gradientUnits="userSpaceOnUse">
<stop stop-color="#FF1CF7"/>
<stop offset="1" stop-color="#00F0FF"/>
</linearGradient>
<linearGradient id="paint63_linear_418_344" x1="385.525" y1="389.313" x2="780.497" y2="112.751" gradientUnits="userSpaceOnUse">
<stop stop-color="#FF1CF7"/>
<stop offset="1" stop-color="#00F0FF"/>
</linearGradient>
<linearGradient id="paint64_linear_418_344" x1="378.563" y1="387.318" x2="777.477" y2="118.247" gradientUnits="userSpaceOnUse">
<stop stop-color="#FF1CF7"/>
<stop offset="1" stop-color="#00F0FF"/>
</linearGradient>
<linearGradient id="paint65_linear_418_344" x1="371.671" y1="385.294" x2="774.386" y2="123.767" gradientUnits="userSpaceOnUse">
<stop stop-color="#FF1CF7"/>
<stop offset="1" stop-color="#00F0FF"/>
</linearGradient>
<linearGradient id="paint66_linear_418_344" x1="364.847" y1="383.246" x2="771.223" y2="129.315" gradientUnits="userSpaceOnUse">
<stop stop-color="#FF1CF7"/>
<stop offset="1" stop-color="#00F0FF"/>
</linearGradient>
<linearGradient id="paint67_linear_418_344" x1="358.094" y1="381.175" x2="767.987" y2="134.886" gradientUnits="userSpaceOnUse">
<stop stop-color="#FF1CF7"/>
<stop offset="1" stop-color="#00F0FF"/>
</linearGradient>
<linearGradient id="paint68_linear_418_344" x1="351.41" y1="379.08" x2="764.678" y2="140.48" gradientUnits="userSpaceOnUse">
<stop stop-color="#FF1CF7"/>
<stop offset="1" stop-color="#00F0FF"/>
</linearGradient>
<linearGradient id="paint69_linear_418_344" x1="344.797" y1="376.966" x2="761.296" y2="146.097" gradientUnits="userSpaceOnUse">
<stop stop-color="#FF1CF7"/>
<stop offset="1" stop-color="#00F0FF"/>
</linearGradient>
<linearGradient id="paint70_linear_418_344" x1="338.254" y1="374.83" x2="757.841" y2="151.731" gradientUnits="userSpaceOnUse">
<stop stop-color="#FF1CF7"/>
<stop offset="1" stop-color="#00F0FF"/>
</linearGradient>
<linearGradient id="paint71_linear_418_344" x1="331.781" y1="372.677" x2="754.313" y2="157.387" gradientUnits="userSpaceOnUse">
<stop stop-color="#FF1CF7"/>
<stop offset="1" stop-color="#00F0FF"/>
</linearGradient>
<linearGradient id="paint72_linear_418_344" x1="325.38" y1="370.506" x2="750.711" y2="163.058" gradientUnits="userSpaceOnUse">
<stop stop-color="#FF1CF7"/>
<stop offset="1" stop-color="#00F0FF"/>
</linearGradient>
<linearGradient id="paint73_linear_418_344" x1="319.049" y1="368.32" x2="747.034" y2="168.747" gradientUnits="userSpaceOnUse">
<stop stop-color="#FF1CF7"/>
<stop offset="1" stop-color="#00F0FF"/>
</linearGradient>
<linearGradient id="paint74_linear_418_344" x1="312.789" y1="366.118" x2="743.284" y2="174.449" gradientUnits="userSpaceOnUse">
<stop stop-color="#FF1CF7"/>
<stop offset="1" stop-color="#00F0FF"/>
</linearGradient>
<linearGradient id="paint75_linear_418_344" x1="306.601" y1="363.903" x2="739.461" y2="180.165" gradientUnits="userSpaceOnUse">
<stop stop-color="#FF1CF7"/>
<stop offset="1" stop-color="#00F0FF"/>
</linearGradient>
<linearGradient id="paint76_linear_418_344" x1="300.484" y1="361.677" x2="735.563" y2="185.894" gradientUnits="userSpaceOnUse">
<stop stop-color="#FF1CF7"/>
<stop offset="1" stop-color="#00F0FF"/>
</linearGradient>
<linearGradient id="paint77_linear_418_344" x1="294.438" y1="359.441" x2="731.59" y2="191.634" gradientUnits="userSpaceOnUse">
<stop stop-color="#FF1CF7"/>
<stop offset="1" stop-color="#00F0FF"/>
</linearGradient>
<linearGradient id="paint78_linear_418_344" x1="288.464" y1="357.193" x2="727.544" y2="197.381" gradientUnits="userSpaceOnUse">
<stop stop-color="#FF1CF7"/>
<stop offset="1" stop-color="#00F0FF"/>
</linearGradient>
<linearGradient id="paint79_linear_418_344" x1="282.561" y1="354.939" x2="723.423" y2="203.138" gradientUnits="userSpaceOnUse">
<stop stop-color="#FF1CF7"/>
<stop offset="1" stop-color="#00F0FF"/>
</linearGradient>
<linearGradient id="paint80_linear_418_344" x1="276.729" y1="352.676" x2="719.228" y2="208.9" gradientUnits="userSpaceOnUse">
<stop stop-color="#FF1CF7"/>
<stop offset="1" stop-color="#00F0FF"/>
</linearGradient>
<linearGradient id="paint81_linear_418_344" x1="270.969" y1="350.409" x2="714.959" y2="214.668" gradientUnits="userSpaceOnUse">
<stop stop-color="#FF1CF7"/>
<stop offset="1" stop-color="#00F0FF"/>
</linearGradient>
<linearGradient id="paint82_linear_418_344" x1="265.281" y1="348.136" x2="710.616" y2="220.438" gradientUnits="userSpaceOnUse">
<stop stop-color="#FF1CF7"/>
<stop offset="1" stop-color="#00F0FF"/>
</linearGradient>
<linearGradient id="paint83_linear_418_344" x1="259.663" y1="345.862" x2="706.199" y2="226.213" gradientUnits="userSpaceOnUse">
<stop stop-color="#FF1CF7"/>
<stop offset="1" stop-color="#00F0FF"/>
</linearGradient>
<linearGradient id="paint84_linear_418_344" x1="254.116" y1="343.585" x2="701.708" y2="231.988" gradientUnits="userSpaceOnUse">
<stop stop-color="#FF1CF7"/>
<stop offset="1" stop-color="#00F0FF"/>
</linearGradient>
<linearGradient id="paint85_linear_418_344" x1="248.641" y1="341.308" x2="697.143" y2="237.763" gradientUnits="userSpaceOnUse">
<stop stop-color="#FF1CF7"/>
<stop offset="1" stop-color="#00F0FF"/>
</linearGradient>
<linearGradient id="paint86_linear_418_344" x1="243.236" y1="339.033" x2="692.505" y2="243.538" gradientUnits="userSpaceOnUse">
<stop stop-color="#FF1CF7"/>
<stop offset="1" stop-color="#00F0FF"/>
</linearGradient>
<linearGradient id="paint87_linear_418_344" x1="237.902" y1="336.759" x2="687.793" y2="249.309" gradientUnits="userSpaceOnUse">
<stop stop-color="#FF1CF7"/>
<stop offset="1" stop-color="#00F0FF"/>
</linearGradient>
<linearGradient id="paint88_linear_418_344" x1="232.638" y1="334.488" x2="683.008" y2="255.076" gradientUnits="userSpaceOnUse">
<stop stop-color="#FF1CF7"/>
<stop offset="1" stop-color="#00F0FF"/>
</linearGradient>
<linearGradient id="paint89_linear_418_344" x1="227.445" y1="332.224" x2="678.15" y2="260.84" gradientUnits="userSpaceOnUse">
<stop stop-color="#FF1CF7"/>
<stop offset="1" stop-color="#00F0FF"/>
</linearGradient>
<linearGradient id="paint90_linear_418_344" x1="222.322" y1="329.963" x2="673.22" y2="266.593" gradientUnits="userSpaceOnUse">
<stop stop-color="#FF1CF7"/>
<stop offset="1" stop-color="#00F0FF"/>
</linearGradient>
<linearGradient id="paint91_linear_418_344" x1="217.269" y1="327.71" x2="668.217" y2="272.341" gradientUnits="userSpaceOnUse">
<stop stop-color="#FF1CF7"/>
<stop offset="1" stop-color="#00F0FF"/>
</linearGradient>
<linearGradient id="paint92_linear_418_344" x1="212.285" y1="325.466" x2="663.142" y2="278.079" gradientUnits="userSpaceOnUse">
<stop stop-color="#FF1CF7"/>
<stop offset="1" stop-color="#00F0FF"/>
</linearGradient>
<linearGradient id="paint93_linear_418_344" x1="207.37" y1="323.234" x2="657.995" y2="283.809" gradientUnits="userSpaceOnUse">
<stop stop-color="#FF1CF7"/>
<stop offset="1" stop-color="#00F0FF"/>
</linearGradient>
<linearGradient id="paint94_linear_418_344" x1="202.524" y1="321.009" x2="652.777" y2="289.524" gradientUnits="userSpaceOnUse">
<stop stop-color="#FF1CF7"/>
<stop offset="1" stop-color="#00F0FF"/>
</linearGradient>
<linearGradient id="paint95_linear_418_344" x1="197.746" y1="318.798" x2="647.487" y2="295.228" gradientUnits="userSpaceOnUse">
<stop stop-color="#FF1CF7"/>
<stop offset="1" stop-color="#00F0FF"/>
</linearGradient>
<linearGradient id="paint96_linear_418_344" x1="193.037" y1="316.597" x2="642.127" y2="300.915" gradientUnits="userSpaceOnUse">
<stop stop-color="#FF1CF7"/>
<stop offset="1" stop-color="#00F0FF"/>
</linearGradient>
<linearGradient id="paint97_linear_418_344" x1="188.396" y1="314.414" x2="636.697" y2="306.589" gradientUnits="userSpaceOnUse">
<stop stop-color="#FF1CF7"/>
<stop offset="1" stop-color="#00F0FF"/>
</linearGradient>
<linearGradient id="paint98_linear_418_344" x1="183.821" y1="312.245" x2="631.197" y2="312.245" gradientUnits="userSpaceOnUse">
<stop stop-color="#FF1CF7"/>
<stop offset="1" stop-color="#00F0FF"/>
</linearGradient>
<clipPath id="clip0_418_344">
<rect width="1340" height="497" fill="white"/>
</clipPath>
</defs>
</svg>
