<svg width="208" height="71" viewBox="0 0 208 71" fill="none" xmlns="http://www.w3.org/2000/svg">
<path fill-rule="evenodd" clip-rule="evenodd" d="M13.9276 4.7502L52.9169 3.83804C60.0947 3.67011 66.0495 9.35269 66.2174 16.5304L67.1296 55.5198C67.2975 62.6975 61.6149 68.6523 54.4372 68.8203L15.4479 69.7324C8.27014 69.9003 2.3153 64.2178 2.14738 57.04L1.23521 18.0507C1.06728 10.873 6.74986 4.91813 13.9276 4.7502ZM50.2724 31.0268C50.3444 34.1052 48.5591 35.6788 46.5246 36.2585C48.9914 36.9264 50.8107 38.8674 50.8842 42.0101L51.0192 47.7799L41.6715 47.9985L41.5433 42.5189C41.5041 40.8427 40.489 40.1893 38.7806 40.2293L27.6923 40.4887L27.8756 48.3213L18.5281 48.54L17.9881 25.4609L40.1968 24.9413C45.773 24.8109 50.1525 25.9018 50.2724 31.0268ZM27.5468 34.2676L38.7962 34.0044C40.0211 33.9758 40.7586 33.7973 40.736 32.8303C40.7134 31.8632 39.9683 31.7194 38.7434 31.7481L27.494 32.0113L27.5468 34.2676Z" fill="black"/>
<path d="M94.9196 49.4666L101.704 49.3078L95.8275 38.2493C99.1913 36.9612 101.191 34.0667 101.104 30.3237C100.989 25.411 97.392 21.7501 91.9335 21.8778L80.9775 22.1342L81.6243 49.7776L87.7846 49.6335L87.5438 39.3403L89.7272 39.2892L94.9196 49.4666ZM87.4197 34.0377L87.2628 27.3316L90.8888 27.2467C93.4231 27.1875 94.8179 28.4422 94.8662 30.5086C94.9118 32.4581 93.58 33.8936 91.0457 33.9529L87.4197 34.0377Z" fill="#040405"/>
<path d="M104.042 43.9087C104.114 46.9889 106.636 49.7387 110.886 49.6392C113.459 49.579 115.305 48.4435 116.28 46.7823C116.311 48.1079 116.484 48.8061 116.526 48.9611L121.868 48.8361C121.824 48.6421 121.599 47.36 121.564 45.8394L121.342 36.365C121.249 32.3881 118.866 28.9329 112.589 29.0797C106.897 29.2129 104.409 32.9381 104.24 35.7118L109.411 36.6442C109.494 35.1988 110.592 33.7687 112.659 33.7204C114.53 33.6766 115.528 34.6285 115.554 35.7592C115.57 36.4221 115.231 36.9371 114.182 37.1177L109.636 37.9262C106.45 38.4689 103.961 40.4777 104.042 43.9087ZM112.228 45.3167C110.59 45.355 109.905 44.3957 109.881 43.382C109.849 42.0174 110.771 41.4107 112.014 41.1865L115.665 40.5159L115.686 41.3737C115.756 44.3759 113.982 45.2756 112.228 45.3167Z" fill="#040405"/>
<path d="M138.488 29.059C138.095 28.9511 137.508 28.8868 136.924 28.9005C135.364 28.937 132.922 29.6183 131.96 31.8254L131.899 29.2131L126.167 29.3472L126.621 48.7249L132.547 48.5863L132.349 40.1256C132.259 36.2657 134.37 34.8119 136.749 34.7562C137.333 34.7425 137.958 34.7669 138.625 34.9074L138.488 29.059Z" fill="#040405"/>
<path d="M148.462 48.214L148.009 28.8363L142.083 28.975L142.536 48.3527L148.462 48.214ZM141.437 23.0604C141.482 24.9709 143.078 26.494 144.949 26.4502C146.899 26.4046 148.422 24.8086 148.377 22.8981C148.333 20.9876 146.736 19.4645 144.787 19.5101C142.916 19.5539 141.392 21.15 141.437 23.0604Z" fill="#040405"/>
<path d="M159.385 47.9583L159.334 45.7749C160.266 47.2356 162.281 48.3197 164.854 48.2595C170.274 48.1327 173.995 43.7935 173.856 37.8671C173.721 32.0577 170.228 27.8482 164.614 27.9796C161.962 28.0416 159.844 29.1835 159.053 30.4113L158.803 19.7282L152.994 19.8641L153.654 48.0924L159.385 47.9583ZM167.931 38.0448C168.007 41.2809 165.978 42.9278 163.677 42.9816C161.377 43.0354 159.233 41.4471 159.158 38.25C159.082 34.9749 161.152 33.405 163.452 33.3512C165.752 33.2974 167.854 34.7697 167.931 38.0448Z" fill="#040405"/>
<path d="M183.834 47.3863L183.174 19.158L177.248 19.2967L177.908 47.525L183.834 47.3863Z" fill="#040405"/>
<path d="M193.267 35.1505C193.35 33.7051 194.555 31.8434 197.05 31.785C199.858 31.7194 200.913 33.4891 201.026 34.9689L193.267 35.1505ZM201.572 39.9885C201.062 41.5219 199.877 42.5639 197.733 42.614C195.432 42.6679 193.408 41.1548 193.239 38.9741L206.73 38.6585C206.766 38.5407 206.823 37.6421 206.804 36.8233C206.658 30.585 202.867 26.9677 196.863 27.1081C191.833 27.2258 187.287 31.3113 187.433 37.5496C187.585 44.0608 192.431 47.7705 197.773 47.6455C202.685 47.5306 205.7 44.6513 206.557 41.2763L201.572 39.9885Z" fill="#040405"/>
</svg>
