<svg width="290" height="74" viewBox="0 0 290 74" fill="none" xmlns="http://www.w3.org/2000/svg">
<g clip-path="url(#clip0_415_124)">
<path d="M98.9928 53.1364C96.0281 53.2058 93.2455 52.6107 90.7111 51.3496C88.2425 50.087 86.2228 48.2858 84.6504 45.8799C83.1438 43.4725 82.3558 40.7842 82.2864 37.815C82.2169 34.8458 82.8783 32.1236 84.2722 29.7143C85.6661 27.305 87.5993 25.4113 90.0705 23.9671C92.5432 22.5889 95.2289 21.8659 98.2596 21.795C101.224 21.7256 104.007 22.3207 106.475 23.5833C109.01 24.8444 111.03 26.6456 112.47 29.0546C113.975 31.396 114.763 34.0843 114.833 37.0535C114.902 40.0227 114.241 42.7449 112.848 45.2202C111.455 47.6294 109.521 49.5232 107.116 50.9658C104.643 52.344 101.958 53.0671 98.9928 53.1364ZM98.8338 46.3403C101.337 46.2817 103.361 45.4421 104.838 43.7571C106.315 42.0721 107.056 39.9422 106.993 37.237C106.929 34.5317 106.088 32.3728 104.535 30.8247C102.981 29.2106 100.986 28.465 98.417 28.5251C95.8476 28.5853 93.8237 29.4248 92.3455 31.0438C90.8672 32.6629 90.1934 34.8572 90.2567 37.5625C90.32 40.2677 91.0957 42.4282 92.648 43.9763C94.2035 45.6564 96.2644 46.4004 98.8338 46.3403Z" fill="black"/>
<path d="M126.695 31.2965C127.394 30.1579 128.426 29.2095 129.727 28.4528C131.028 27.6962 132.601 27.3293 134.38 27.2877C136.488 27.2384 138.345 27.7231 140.081 28.6727C141.818 29.6224 143.169 31.0431 144.136 32.935C145.169 34.8254 145.747 36.9905 145.806 39.4978C145.865 42.0051 145.389 44.1948 144.445 46.1314C143.502 48.068 142.218 49.5505 140.596 50.6447C138.906 51.6745 137.073 52.2455 134.965 52.2948C133.252 52.3349 131.663 52.042 130.263 51.3486C128.928 50.6536 127.854 49.8205 127.103 48.7158L127.353 59.4048L119.645 59.5852L118.907 28.0458L126.615 27.8655L126.695 31.2965ZM137.9 39.6827C137.857 37.8353 137.296 36.396 136.151 35.3665C135.072 34.3354 133.742 33.8384 132.161 33.8754C130.646 33.9108 129.34 34.4695 128.245 35.5514C127.216 36.6318 126.724 38.1617 126.767 40.0092C126.811 41.8567 127.372 43.296 128.452 44.393C129.531 45.4241 130.861 45.9211 132.442 45.8841C134.023 45.8471 135.263 45.29 136.358 44.2081C137.452 43.0602 137.945 41.5962 137.9 39.6827Z" fill="black"/>
<path d="M173.535 38.519C173.552 39.2448 173.503 39.9721 173.454 40.6995L155.995 41.1079C156.163 42.6224 156.651 43.7993 157.592 44.5695C158.533 45.3397 159.597 45.7109 160.914 45.6801C162.825 45.6354 164.19 44.8113 164.878 43.2107L173.113 43.0181C172.755 44.6109 171.998 46.081 170.907 47.3609C169.883 48.6392 168.524 49.7273 166.894 50.4916C165.264 51.2559 163.428 51.695 161.386 51.7428C158.948 51.7998 156.696 51.3243 154.762 50.3793C152.828 49.4343 151.279 48.0181 150.18 46.1293C149.081 44.2405 148.437 42.077 148.379 39.5696C148.32 37.0623 148.794 34.8066 149.805 32.9345C150.815 30.9963 152.296 29.5093 154.184 28.4748C156.071 27.4404 158.299 26.8601 160.802 26.8016C163.24 26.7445 165.425 27.1556 167.359 28.1006C169.292 29.0456 170.774 30.3973 171.872 32.2202C172.902 33.9786 173.478 36.0776 173.535 38.519ZM165.583 36.7245C165.554 35.4708 165.068 34.4259 164.128 33.7217C163.189 33.0175 162.06 32.6478 160.742 32.6786C159.424 32.7094 158.379 33.13 157.474 33.8774C156.635 34.6232 156.132 35.6912 155.9 37.017L165.584 36.7905L165.583 36.7245Z" fill="black"/>
<path d="M192.624 26.0571C195.589 25.9877 197.916 26.8575 199.738 28.6634C201.56 30.4693 202.475 32.9565 202.551 36.1897L202.883 50.3758L195.241 50.5546L194.932 37.3582C194.893 35.7086 194.403 34.4658 193.526 33.628C192.648 32.7243 191.453 32.3562 190.003 32.3901C188.554 32.424 187.379 32.9136 186.543 33.7914C185.708 34.7352 185.276 35.9997 185.313 37.5832L185.622 50.7796L177.913 50.96L177.345 26.6786L185.054 26.4983L185.129 29.7314C185.895 28.6572 186.929 27.7747 188.233 27.1501C189.535 26.4594 190.977 26.0956 192.624 26.0571Z" fill="black"/>
<path d="M219.757 50.3111C217.451 50.3651 215.333 50.0185 213.472 49.3358C211.61 48.6532 210.136 47.6314 208.982 46.206C207.894 44.7791 207.261 43.0774 207.148 41.0995L215.384 40.9068C215.542 42.0254 215.957 42.8739 216.697 43.5168C217.37 44.0952 218.299 44.3376 219.419 44.3114C220.539 44.2852 221.455 43.9997 222.103 43.5224C222.749 42.9791 223.062 42.2456 223.042 41.3878C223.025 40.662 222.746 40.0084 222.208 39.5588C221.67 39.1093 221 38.6628 220.27 38.4159C219.537 38.1029 218.409 37.7992 217.015 37.3697C214.959 36.8236 213.298 36.2683 211.965 35.6393C210.633 35.0763 209.491 34.1788 208.541 33.0127C207.591 31.8466 207.093 30.2738 207.048 28.3603C206.982 25.5231 207.983 23.2551 210.121 21.6206C212.19 19.9218 215.005 19.0637 218.431 18.9836C221.922 18.9019 224.774 19.6274 226.921 21.2276C229.066 22.7618 230.304 24.9775 230.504 27.8776L222.137 28.0734C222.048 27.0852 221.634 26.3026 220.963 25.7902C220.29 25.2118 219.362 24.9694 218.308 24.9941C217.385 25.0157 216.601 25.2981 216.084 25.7723C215.502 26.248 215.254 26.914 215.276 27.8378C215.299 28.8275 215.779 29.6085 216.779 30.1132C217.78 30.618 219.243 31.1779 221.301 31.7899C223.359 32.402 225.021 33.0232 226.287 33.5878C227.619 34.1508 228.76 35.0484 229.709 36.1485C230.659 37.3146 231.154 38.7554 231.197 40.6029C231.238 42.3184 230.813 43.9128 229.925 45.3859C229.037 46.8591 227.745 48.0116 226.052 48.9095C224.162 49.8119 222.129 50.2556 219.757 50.3111Z" fill="black"/>
<path d="M259.513 36.5075C259.53 37.2333 259.481 37.9606 259.432 38.688L241.973 39.0964C242.14 40.6109 242.629 41.7878 243.57 42.558C244.511 43.3282 245.574 43.6995 246.892 43.6686C248.803 43.6239 250.168 42.7998 250.855 41.1993L259.091 41.0066C258.732 42.5994 257.976 44.0695 256.885 45.3494C255.86 46.6277 254.501 47.7158 252.871 48.4801C251.241 49.2444 249.406 49.6835 247.363 49.7313C244.926 49.7883 242.673 49.3129 240.74 48.3678C238.806 47.4228 237.257 46.0067 236.158 44.1178C235.059 42.229 234.415 40.0655 234.356 37.5582C234.298 35.0509 234.772 32.7951 235.783 30.923C236.792 28.9848 238.274 27.4978 240.161 26.4634C242.049 25.4289 244.276 24.8487 246.78 24.7901C249.218 24.7331 251.403 25.1441 253.336 26.0891C255.27 27.0341 256.752 28.3859 257.849 30.2087C258.813 31.9686 259.456 34.0662 259.513 36.5075ZM251.56 34.713C251.531 33.4593 251.045 32.4144 250.106 31.7102C249.167 31.006 248.037 30.6363 246.72 30.6671C245.402 30.6979 244.357 31.1185 243.452 31.8659C242.612 32.6117 242.11 33.6798 241.877 35.0056L251.562 34.779L251.56 34.713Z" fill="black"/>
<path d="M262.024 36.7788C261.965 34.2715 262.376 32.0833 263.319 30.1467C264.263 28.2101 265.546 26.7277 267.236 25.6979C268.926 24.6681 270.758 24.0971 272.867 24.0477C274.645 24.0061 276.168 24.3006 277.569 24.994C278.97 25.6874 279.978 26.5221 280.73 27.6928L280.65 24.2618L288.358 24.0814L288.926 48.3628L281.218 48.5431L281.138 45.112C280.439 46.2507 279.407 47.1991 278.04 47.9573C276.74 48.7139 275.166 49.0808 273.387 49.1224C271.345 49.1702 269.488 48.6855 267.752 47.7359C266.014 46.7202 264.662 45.2994 263.629 43.4091C262.596 41.5187 262.083 39.2861 262.024 36.7788ZM280.868 36.404C280.825 34.5565 280.264 33.1172 279.118 32.0217C278.039 30.9907 276.709 30.4936 275.194 30.5291C273.678 30.5645 272.373 31.1232 271.278 32.2051C270.248 33.2855 269.755 34.7494 269.798 36.5969C269.841 38.4444 270.404 39.9497 271.483 40.9807C272.562 42.0118 273.892 42.5088 275.473 42.4718C276.988 42.4364 278.294 41.8777 279.323 40.7973C280.418 39.7154 280.911 38.2515 280.868 36.404Z" fill="black"/>
<path fill-rule="evenodd" clip-rule="evenodd" d="M35.3788 72.7796C53.5626 72.3542 67.9747 57.229 67.5486 39.018C67.1226 20.807 52.0189 6.37227 33.8352 6.79768C15.6514 7.2231 1.23934 22.3483 1.66539 40.5593C2.09144 58.7704 17.1951 73.205 35.3788 72.7796ZM56.1698 42.9152L56.2192 45.0266C56.2223 45.1586 56.158 45.2261 56.0278 45.2951C55.3751 45.5745 53.0939 46.6841 52.2024 48.0254C51.6782 48.7858 51.1849 49.6173 50.6899 50.4517L50.6899 50.4518C48.9574 53.3722 47.2036 56.3286 44.0266 56.4029L26.897 56.8036C20.8357 56.9454 15.7787 52.1124 15.6352 45.9761L15.6305 45.7781C15.6274 45.6462 15.7561 45.5111 15.8879 45.508L25.5068 45.283C25.7045 45.2784 25.8409 45.4732 25.844 45.6052C25.792 46.2006 25.9392 46.8573 26.2166 47.445C26.8374 48.6188 28.0387 49.2509 29.2905 49.2216L34.0341 49.1106L33.9476 45.4156L29.2699 45.525C29.0064 45.5312 28.8684 45.2704 28.9956 45.0693C29.0599 45.0018 29.1242 44.9343 29.187 44.8008C29.6328 44.1302 30.2041 43.1926 30.8367 42.0555C31.2809 41.3189 31.6562 40.4518 31.967 39.6524C32.0298 39.5189 32.0926 39.3853 32.1539 39.1859C32.1914 39.0193 32.2548 38.8521 32.3119 38.7013L32.312 38.7012C32.3459 38.6118 32.3776 38.5282 32.4004 38.4539L32.5842 37.8554C32.7005 37.1925 32.7494 36.4652 32.7309 35.6734L32.7309 35.6734C32.7247 35.4095 32.717 35.0796 32.6434 34.7512C32.6396 34.5862 32.6192 34.4217 32.5989 34.2571C32.5786 34.0925 32.5582 33.928 32.5544 33.763C32.5482 33.4991 32.4746 33.1707 32.4025 32.9083C32.3259 32.448 32.2507 32.0536 32.1081 31.5949L32.0392 31.4644C32.0275 31.4219 32.0158 31.3777 32.0038 31.3323L32.0037 31.332C31.9415 31.0972 31.8711 30.8313 31.7556 30.6128C31.4704 29.6953 31.1194 28.7792 30.7714 27.9951L30.353 27.0147C30.1445 26.5574 29.9361 26.1002 29.7292 25.7089C29.6939 25.6107 29.6426 25.5294 29.5912 25.448C29.5399 25.3667 29.4885 25.2854 29.4533 25.1872C29.418 25.089 29.3663 24.9912 29.3146 24.8934L29.3146 24.8934C29.2629 24.7955 29.2111 24.6977 29.1759 24.5995L28.969 24.2083L28.3513 23.1664C28.2823 23.036 28.4095 22.835 28.5428 22.8979L32.1895 23.8028L32.6538 23.924L33.1839 24.0436L33.3831 24.105L33.3322 21.9276C33.3075 20.8719 34.1439 19.9941 35.1322 19.9709C35.6592 19.9586 36.125 20.1458 36.4622 20.468C36.7993 20.7902 37.0078 21.2474 37.0201 21.7753L37.0942 24.9424L37.4926 25.0651C37.4926 25.0651 37.5585 25.0636 37.56 25.1296C37.6274 25.194 37.7623 25.3229 37.963 25.4502C38.0979 25.5791 38.2327 25.708 38.4335 25.8353C38.7691 26.0916 39.2395 26.4766 39.7099 26.8617L39.71 26.8618C39.7577 26.9074 39.8053 26.9448 39.8499 26.9798C39.9312 27.0437 40.0026 27.0997 40.0471 27.184C40.6524 27.698 41.3267 28.3424 42.0025 29.0527C42.1036 29.1494 42.1883 29.2465 42.2729 29.3435C42.3576 29.4405 42.4423 29.5376 42.5434 29.6343C42.6446 29.7309 42.7296 29.8444 42.8146 29.9579L42.8147 29.958C42.8997 30.0715 42.9848 30.1851 43.0859 30.2817C43.1878 30.4113 43.3064 30.5569 43.4251 30.7026L43.4254 30.7029C43.5442 30.8487 43.6629 30.9944 43.7648 31.1241C43.7905 31.1726 43.8253 31.221 43.8625 31.2726L43.8625 31.2727C43.9253 31.3598 43.9949 31.4565 44.0392 31.5798C44.1756 31.7747 44.2955 31.9699 44.4154 32.1652L44.4155 32.1653C44.5354 32.3605 44.6553 32.5557 44.7917 32.7505C44.8269 32.8487 44.8787 32.9465 44.9304 33.0444C44.9821 33.1422 45.0338 33.24 45.0691 33.3382C45.345 33.8599 45.555 34.3831 45.6348 34.9754C45.7037 35.1058 45.7068 35.2378 45.7084 35.3038C45.7773 35.4342 45.782 35.6321 45.7866 35.8301C45.8624 36.3926 45.8179 36.8984 45.7687 37.4578L45.7687 37.4579L45.7608 37.5472C45.731 37.6799 45.7008 37.7961 45.6705 37.9124L45.6704 37.9126C45.6402 38.0288 45.61 38.1449 45.5802 38.2776C45.5657 38.3247 45.5513 38.3755 45.5362 38.4291L45.5361 38.4291C45.487 38.6026 45.4296 38.8056 45.3336 39.0096C45.1468 39.476 44.8941 39.944 44.6414 40.412L44.6414 40.412L44.6413 40.4121C44.5785 40.5456 44.4514 40.7466 44.3243 40.9476L44.3243 40.9477C44.2863 41.0077 44.2482 41.0618 44.2118 41.1135C44.1263 41.2351 44.0502 41.3433 44.0072 41.4833C43.9436 41.5838 43.8636 41.6847 43.7835 41.7856L43.7834 41.7857C43.7034 41.8866 43.6234 41.9874 43.5599 42.0879C43.4328 42.2889 43.3056 42.4899 43.1126 42.6925C43.0169 42.8268 42.9047 42.9614 42.7925 43.096L42.7925 43.0961L42.7924 43.0962C42.6802 43.2308 42.568 43.3655 42.4723 43.4997C42.4316 43.5425 42.391 43.5918 42.3483 43.6437L42.3483 43.6437C42.2563 43.7556 42.1549 43.879 42.0219 43.9724C41.9812 44.0151 41.9406 44.0645 41.898 44.1163L41.898 44.1164L41.8979 44.1164C41.8059 44.2283 41.7045 44.3517 41.5715 44.445C41.3785 44.6476 41.1855 44.8502 40.9909 44.9868L40.6034 45.3259C40.539 45.3934 40.4731 45.395 40.4073 45.3965L37.5084 45.4643L37.5948 49.1593L41.2184 49.0746C42.009 49.0561 42.7934 48.7736 43.374 48.2319C43.4212 48.1824 43.5109 48.0963 43.6355 47.9768L43.6355 47.9768C44.0204 47.6076 44.738 46.9191 45.5631 46.0021C45.6001 45.9633 45.6159 45.9468 45.6351 45.9395C45.6493 45.9341 45.6654 45.9337 45.6934 45.933L55.8327 42.593C56.0288 42.5224 56.1652 42.7172 56.1698 42.9152ZM17.9648 41.3003L18.0919 41.0993L26.3434 27.5046C26.4705 27.3035 26.7341 27.2974 26.872 27.5582C28.3971 30.7574 29.6756 34.6886 29.2072 37.2083C28.9683 38.2701 28.3419 39.6712 27.5807 40.9433C27.5194 41.1428 27.3923 41.3438 27.2636 41.4789C27.1993 41.5464 27.1349 41.6139 27.0032 41.617L18.1748 41.8235C17.9756 41.7622 17.8377 41.5013 17.9648 41.3003Z" fill="black"/>
</g>
<defs>
<clipPath id="clip0_415_124">
<rect width="287" height="66" fill="white" transform="translate(0.893555 7.56836) rotate(-1.34021)"/>
</clipPath>
</defs>
</svg>
