<svg width="168" height="88" viewBox="0 0 168 88" fill="none" xmlns="http://www.w3.org/2000/svg">
<path d="M101.431 4.3536C102.301 3.65616 103.053 2.5581 104.201 2.37997C109.572 5.35884 114.179 9.50809 118.458 13.8739C115.688 18.6063 111.899 22.6134 108.071 26.4774C107.315 27.1217 106.386 28.332 105.296 27.6444C102.973 26.3208 100.768 24.7987 98.7072 23.0949C96.0852 20.9377 93.3004 18.8996 91.2405 16.1385C94.0186 11.7301 97.7284 8.04176 101.431 4.3536ZM107.3 11.9956C105.409 14.0181 103.359 15.8869 101.171 17.5845C100.506 16.2185 100.308 14.6718 100.607 13.1822L101.985 13.575C101.588 14.1605 100.727 14.6128 100.847 15.4096C101.682 15.6926 102.052 14.6034 102.626 14.201L103.604 14.7328L104.175 13.8695C102.712 12.9097 101.181 11.8434 99.3811 11.5686C99.0701 14 99.2776 16.4697 99.9901 18.8151C100.156 19.4523 100.959 18.9869 101.293 18.7846C103.798 16.8604 105.689 14.2519 108.275 12.4194C108.947 13.8212 109.121 15.41 108.77 16.9242C107.933 16.5111 107.121 16.0491 106.339 15.5404C105.882 15.1261 105.545 15.7967 105.233 16.0273C106.669 17.1345 108.312 17.9435 110.065 18.4065C110.416 15.7973 110.167 13.1423 109.336 10.6442C108.57 10.9542 107.877 11.4192 107.3 12.01L107.3 11.9956Z" fill="black"/>
<path d="M14.6359 9.98579C15.9497 8.87459 17.637 8.3381 19.2216 7.71758C20.9988 10.0962 23.038 12.2815 24.7303 14.727C22.9014 15.9871 21.3478 17.9322 21.2577 20.2393C21.2645 20.8553 21.4371 21.458 21.7574 21.9842C22.0778 22.5103 22.5339 22.9404 23.078 23.2292C26.0445 25.0254 29.5499 25.5341 32.8812 26.2989C37.6607 27.39 42.5718 27.945 47.2662 29.3982C47.2343 35.7305 46.9718 42.0609 47.048 48.3978C46.8352 56.2326 47.2129 64.0679 47.0143 71.8951C42.4392 72.1534 37.8678 72.5701 33.2826 72.7061C32.4157 70.1333 31.8278 67.4819 31.0682 64.8778C28.6786 63.9498 26.2275 63.1889 23.7326 62.6004C23.1654 62.6785 23.0665 63.3795 22.7657 63.7611C21.2267 66.6351 19.7904 69.5932 18.1265 72.362C17.7474 73.0912 16.8039 72.7891 16.158 72.8907C12.4414 72.8984 8.72984 73.1221 5.01509 73.209C3.84281 73.2869 3.03434 72.2901 2.15579 71.684C7.13735 60.165 12.0605 48.6113 16.5257 36.8811C16.8503 35.9803 17.2016 34.9853 16.8625 34.0352C16.3194 32.3768 14.8043 31.3462 13.4351 30.3986C10.7972 28.6883 8.17772 26.9441 5.57662 25.1657C6.70502 22.5966 7.54862 19.8613 9.04135 17.471C10.1594 17.2288 10.8642 18.4152 11.6415 19.0021C11.4965 17.3743 11.6876 15.734 12.2027 14.1831C12.7177 12.6321 13.546 11.2035 14.6359 9.98579ZM27.6244 41.7572C26.8555 43.9866 26.0793 46.2161 25.3684 48.4657C25.2524 49.0518 24.8765 49.9178 25.5407 50.2912C27.5809 51.0467 29.6842 51.6194 31.8258 52.0026C32.3701 51.5577 33.1345 51.2877 33.4873 50.6672C33.6216 47.7521 33.5389 44.8311 33.2396 41.9284C33.1269 41.4196 33.1733 40.6334 32.486 40.5054C31.3547 40.0886 30.1553 39.887 28.9498 39.9111C28.1842 40.1307 27.9617 41.0867 27.6604 41.7564L27.6244 41.7572Z" fill="black"/>
<path d="M142.87 14.5201C144.502 13.738 146.223 13.1583 147.995 12.7939C148.82 15.1156 148.784 17.6159 149.136 20.0279C149.436 21.6599 149.61 23.3127 149.655 24.9715C148.377 26.053 146.817 26.8242 145.686 28.0464C143.677 29.9158 142.365 32.3451 140.95 34.64C138.831 33.9692 136.853 32.863 134.672 32.345C134.217 33.7963 133.801 35.4123 134.426 36.8815C135.011 38.2861 136.031 39.4664 137.335 40.2493C138.879 39.1111 139.965 37.5082 141.376 36.2435C142.48 36.3185 143.418 37.0241 144.436 37.4036C147.254 38.7279 150.404 38.8127 153.433 39.2604C153.235 41.5701 153.073 43.886 152.759 46.184C152.724 46.8619 151.979 47.0017 151.495 47.2796C148.421 48.576 145.317 49.8228 142.266 51.1691C142.618 52.054 142.972 52.9365 143.329 53.8166C150.202 53.8791 157.073 54.1433 163.936 53.7882C164.838 54.7755 166.782 55.6593 166.135 57.2591C165.265 60.0958 164.105 62.8386 163.046 65.6149C162.907 66.1512 162.531 66.7002 162.695 67.2654C164.21 68.26 165.904 68.9479 167.363 70.0375L167.369 70.2966C167.063 71.0673 166.782 72.0031 165.895 72.2687C162.326 73.6344 158.753 74.8633 155.249 76.2562C153.98 76.7787 152.645 77.1274 151.283 77.2926C150.902 73.9521 151.263 70.5942 151.328 67.2432C144.649 67.4643 138.032 68.4835 131.365 68.9204C130.645 68.9372 129.587 68.962 129.458 68.0646C127.97 63.6047 127.019 58.9881 125.689 54.4669C123.065 45.4452 120.863 36.3056 118.568 27.197C118.473 26.7677 118.427 26.329 118.43 25.8893C119.933 24.572 121.847 23.8717 123.621 23.0163C130.037 20.1866 136.378 17.1858 142.87 14.5201Z" fill="black"/>
<path d="M72.4579 40.5858C77.1092 36.8106 81.5602 32.788 86.1817 28.9703C89.604 32.0884 93.3375 34.9544 96.1895 38.6332C92.0877 42.1867 87.9711 45.7261 83.8841 49.3008C84.5398 51.0247 85.5532 52.5902 86.8575 53.8944C88.1618 55.1985 89.7275 56.2116 91.4515 56.867C93.9497 57.7378 96.3964 56.4056 98.5075 55.1965C99.5824 58.1533 100.445 61.1829 101.089 64.2624C98.1654 66.7438 95.0421 69.0211 91.8882 71.2198C91.5603 71.5239 91.135 71.7016 90.6882 71.7213C90.2414 71.741 89.8022 71.6014 89.4488 71.3273C85.0968 68.6007 80.8864 65.669 76.8177 62.5324C75.8491 61.7671 74.8291 61.069 73.7652 60.4429C69.4625 64.6494 65.1598 68.8558 60.7314 72.9211C60.1195 72.9354 59.7524 72.3317 59.2697 72.0189C55.9702 69.1236 52.6916 66.2014 49.4341 63.2524C48.7762 62.8428 49.5605 62.1906 49.8179 61.8028C52.9472 58.2433 56.0983 54.6905 59.169 51.0891C56.1523 46.8378 53.4187 42.371 50.6216 37.9634C50.207 37.4833 50.9851 37.1841 51.267 36.9182C54.7126 34.5614 58.2477 32.3394 61.8278 30.1884C65.4092 33.6413 68.7647 37.2868 72.4579 40.5858Z" fill="black"/>
<path d="M97.1894 31.1907C103.328 30.0387 109.476 28.9584 115.657 28.0575C116.491 32.9289 116.564 37.8973 117.075 42.8051C117.678 50.9112 118.331 59.0162 119.034 67.12C119.123 67.8383 119.155 68.8963 118.119 68.6397C113.552 68.0262 108.978 67.4129 104.462 66.5101C103.552 66.409 103.449 65.3525 103.295 64.643C102.631 60.8986 101.566 57.2355 100.931 53.4904C100.727 52.4795 101.442 51.6344 101.796 50.7545C103.735 46.9616 104.148 42.5701 102.95 38.4823C101.412 38.3598 99.8594 38.4826 98.3342 38.2518C97.6577 35.9554 97.2731 33.5831 97.1894 31.1907Z" fill="black"/>
<path d="M91.4839 43.7855C91.6745 43.3128 92.1149 42.4309 92.7589 42.8625C94.2349 44.3766 94.368 46.6785 94.4436 48.6792C94.3675 50.0423 94.5187 51.89 93.0519 52.6158C92.1372 51.3596 91.5207 49.9116 91.249 48.3816C90.9773 46.8516 91.0576 45.2798 91.4839 43.7855Z" fill="black"/>
<path d="M82.9114 77.005L85.3663 76.9475C86.4763 78.5206 87.5228 80.1456 88.6259 81.7261C88.588 80.1063 88.5499 78.4793 88.6272 76.8568L91.1541 76.7977C91.2233 79.7565 91.3429 82.7142 91.4411 85.6796L88.9142 85.7387C87.917 84.3719 86.9059 83.0269 85.8945 81.6676C85.9268 83.0498 85.9233 84.4401 85.9415 85.8299L82.9394 85.9001C82.9635 82.9246 82.9302 79.965 82.9114 77.005Z" fill="black"/>
<path d="M49.6156 77.7839L52.8264 77.7088C52.8956 80.6677 52.9288 83.6274 52.9837 86.5866L49.7585 86.662C49.7038 83.71 49.6418 80.751 49.6156 77.7839Z" fill="black"/>
<path d="M55.8571 77.6379L58.3624 77.5793C59.4514 79.1745 60.5048 80.7921 61.6007 82.3728C61.5628 80.753 61.5605 79.1179 61.5441 77.4904L64.0998 77.4306C64.2122 80.3885 64.2382 83.3483 64.3794 86.3055L61.9029 86.3634C60.8994 85.0327 59.9524 83.6575 58.8571 82.4081C58.8453 83.7482 58.8696 85.0946 58.8939 86.441L55.9206 86.5106C55.9091 83.5576 55.8759 80.5979 55.8571 77.6379Z" fill="black"/>
<path d="M67.1598 77.3734L73.7542 77.2192C73.7731 78.0255 73.792 78.8318 73.8108 79.6381C72.5726 79.667 71.3343 79.696 70.1033 79.7248C70.0553 80.1365 70.0073 80.5482 69.9595 80.9671L72.0412 80.9688L72.2301 82.5779L70.1712 82.6261C70.1989 83.8115 70.2435 84.999 70.3049 86.1884L67.2021 86.261C67.1543 83.2945 67.1283 80.3347 67.1598 77.3734Z" fill="black"/>
<path d="M76.6504 77.2451C77.6927 77.1112 78.7438 77.0577 79.7944 77.0851C79.8636 80.044 79.9328 83.0028 79.9589 85.9627L76.7264 86.0383C76.7299 83.1066 76.4884 80.1734 76.6504 77.2451Z" fill="black"/>
<path d="M94.207 76.7407L97.4179 76.6656C97.4871 79.6244 97.5203 82.5841 97.5823 85.5431L94.3499 85.6187C94.3096 82.6664 94.2476 79.7074 94.207 76.7407Z" fill="black"/>
<path d="M100.434 76.5662C103.212 76.5012 105.991 76.4362 108.77 76.3712C108.845 77.4139 108.884 78.4646 108.844 79.5172L106.058 79.5824C106.103 81.5046 106.148 83.4267 106.192 85.3417L102.938 85.4178C102.999 83.4956 103.048 81.5736 103.084 79.652L100.494 79.7486L100.434 76.5662Z" fill="black"/>
<path d="M110.088 76.3404L113.435 76.2621C114.175 77.1091 114.916 77.9706 115.584 78.8409C116.01 77.9522 116.436 77.0634 116.884 76.1886C118.014 76.1622 119.144 76.1357 120.282 76.1091C118.945 79.1177 117.599 82.1216 116.243 85.121L112.643 85.2052C113.213 84.0178 113.776 82.8377 114.361 81.6571C112.958 79.8676 111.519 78.1077 110.088 76.3404Z" fill="black"/>
</svg>
