<svg width="281" height="91" viewBox="0 0 281 91" fill="none" xmlns="http://www.w3.org/2000/svg">
<path d="M142.669 15.369L146.838 15.2715L146.814 14.2608L145.715 13.2121L140.535 13.3333L139.487 14.4322L139.682 22.7705L140.779 23.756L145.959 23.6348L147.009 22.599L146.986 21.5883L142.817 21.6858L142.768 19.6013L146.937 19.5038L146.888 17.4192L142.719 17.5167L142.669 15.369Z" fill="black"/>
<path d="M145.875 3.85432L140.001 3.99176L140.138 9.86643L146.013 9.72899L145.875 3.85432Z" fill="black"/>
<path d="M134.661 13.4707L134.758 17.6398L131.663 17.7122L131.566 13.5431L129.481 13.5919L128.432 14.6908L128.627 23.0291L129.725 24.0146L131.809 23.9658L131.712 19.7968L134.807 19.7243L134.905 23.8934L136.989 23.8447L137.976 22.8103L137.78 14.4089L136.744 13.3588L134.659 13.4075L134.661 13.4707Z" fill="black"/>
<path d="M118.363 13.852L117.315 14.9509L117.338 15.9616L120.433 15.8892L120.603 23.1535L121.701 24.1391L122.712 24.1155L123.699 23.0811L123.529 15.8167L126.624 15.7443L126.6 14.7337L125.564 13.6835L118.363 13.852Z" fill="black"/>
<path d="M5.42947 30.4619L1.35791 34.7285L1.74806 51.4049L6.01469 55.4765L22.6911 55.0863L22.8862 63.4246L14.548 63.6196L14.4504 59.4505L1.94314 59.7431L2.13821 68.0813L6.40484 72.1529L31.3563 71.5691L35.4278 67.3025L35.0377 50.6261L30.771 46.5546L14.1578 46.9432L13.9627 38.605L22.3009 38.4099L22.3985 42.5791L34.9058 42.2865L34.7107 33.9482L30.444 29.8767L5.42947 30.4619Z" fill="black"/>
<path d="M117.806 27.8328L118.78 69.4606L147.9 68.7794L151.972 64.5127L151.193 31.2231L146.926 27.1515L117.806 27.8328ZM130.508 35.8784L138.846 35.6833L139.43 60.6347L131.092 60.8298L130.508 35.8784Z" fill="black"/>
<path d="M155.264 26.9565L156.238 68.5843L185.359 67.903L189.43 63.6364L189.138 51.1291L184.871 47.0575L188.943 42.7909L188.65 30.2836L184.383 26.212L155.264 26.9565ZM168.357 51.6784L176.695 51.4833L176.89 59.8216L168.552 60.0167L168.357 51.6784ZM168.162 43.3403L167.967 35.002L176.305 34.8069L176.5 43.1452L168.162 43.3403Z" fill="black"/>
<path d="M196.892 25.9825L192.821 30.2492L193.599 63.5388L197.866 67.6104L222.817 67.0266L226.889 62.76L226.11 29.4703L221.844 25.3988L196.892 25.9825ZM205.425 34.1256L213.764 33.9306L214.347 58.882L206.009 59.077L205.425 34.1256Z" fill="black"/>
<path d="M271.669 37.1949L263.992 45.2401L272.037 52.9175L279.714 44.8723L271.669 37.1949Z" fill="black"/>
<path d="M55.9099 73.2475L48.2325 81.2927L56.2778 88.97L63.9551 80.9249L55.9099 73.2475Z" fill="black"/>
<path d="M251.027 24.716L251.32 37.2234L247.248 41.49L242.982 37.4184L242.689 24.9111L234.351 25.1062L230.279 29.3728L230.572 41.8801L234.839 45.9517L230.767 50.2183L231.06 62.7256L235.326 66.7972L243.664 66.6021L243.372 54.0948L247.443 49.8281L251.71 53.8997L252.003 66.407L260.341 66.2119L264.412 61.9453L264.12 49.438L259.853 45.3665L263.925 41.0998L263.632 28.5925L259.365 24.521L251.027 24.716Z" fill="black"/>
<path d="M101.129 28.2229L101.422 40.7303L88.6219 28.5156L80.2837 28.7106L76.2122 32.9772L76.991 66.2669L81.2576 70.3384L89.5958 70.1434L89.0121 45.192L101.812 57.4066L102.105 69.9139L110.443 69.7188L114.514 65.4522L113.736 32.1626L109.469 28.091L101.131 28.2861L101.129 28.2229Z" fill="black"/>
<path d="M67.8425 29.1281L42.8911 29.7118L38.8196 33.9785L39.5984 67.2681L43.865 71.3397L52.2032 71.1446L51.8131 54.4682L60.1513 54.2731L60.5414 70.9495L68.8796 70.7544L72.9512 66.4878L72.1724 33.1982L67.8425 29.1281ZM55.8226 47.5485L50.3923 42.3665L55.5743 36.9363L61.0046 42.1183L55.8226 47.5485Z" fill="black"/>
</svg>
