<svg width="72" height="71" viewBox="0 0 72 71" fill="none" xmlns="http://www.w3.org/2000/svg">
<path d="M51.2598 35.5C51.2595 36.0236 51.1202 36.5378 50.8562 36.99C50.5921 37.4421 50.2128 37.8161 49.757 38.0738L34.2198 46.8837C33.5441 47.2669 32.7795 47.4661 32.0027 47.4612C31.2258 47.4563 30.4639 47.2475 29.793 46.8558C29.1221 46.464 28.5659 45.903 28.1798 45.2289C27.7938 44.5547 27.5915 43.791 27.5931 43.0142V27.9799C27.5935 27.2041 27.7973 26.4419 28.1842 25.7693C28.5711 25.0968 29.1276 24.5375 29.7981 24.1472C30.4686 23.7568 31.2298 23.5491 32.0056 23.5447C32.7815 23.5404 33.5449 23.7395 34.2198 24.1223L49.757 32.9262C50.2128 33.1839 50.5921 33.5579 50.8562 34.01C51.1202 34.4622 51.2595 34.9764 51.2598 35.5ZM36.4681 0C31.8062 -6.94681e-08 27.1899 0.918234 22.8829 2.70228C18.5758 4.48632 14.6623 7.10123 11.3658 10.3977C8.06937 13.6942 5.45446 17.6077 3.67042 21.9147C1.88637 26.2218 0.96814 30.8381 0.96814 35.5C0.96814 40.1619 1.88637 44.7782 3.67042 49.0853C5.45446 53.3923 8.06937 57.3058 11.3658 60.6023C14.6623 63.8988 18.5758 66.5137 22.8829 68.2977C27.1899 70.0818 31.8062 71 36.4681 71C45.8833 71 54.9129 67.2598 61.5704 60.6023C68.228 53.9447 71.9681 44.9152 71.9681 35.5C71.9681 26.0848 68.228 17.0552 61.5704 10.3977C54.9129 3.74017 45.8833 1.40297e-07 36.4681 0V0ZM6.88481 35.5C6.88481 27.654 10.0016 20.1294 15.5496 14.5814C21.0975 9.03347 28.6222 5.91667 36.4681 5.91667C44.3141 5.91667 51.8388 9.03347 57.3867 14.5814C62.9347 20.1294 66.0515 27.654 66.0515 35.5C66.0515 43.346 62.9347 50.8706 57.3867 56.4186C51.8388 61.9665 44.3141 65.0833 36.4681 65.0833C28.6222 65.0833 21.0975 61.9665 15.5496 56.4186C10.0016 50.8706 6.88481 43.346 6.88481 35.5Z" fill="#FF9C00"/>
</svg>
