<svg width="429" height="367" viewBox="0 0 429 367" fill="none" xmlns="http://www.w3.org/2000/svg">
<g filter="url(#filter0_d_410_871)">
<rect x="19.5" y="15.5" width="139" height="286" rx="69.5" stroke="#FF9C00" stroke-width="5"/>
<rect x="27" y="23" width="124" height="128" rx="62" fill="#FF9C00"/>
<circle cx="89" cy="86" r="5" fill="black"/>
<path d="M91.4923 130.229L85.6885 130.989L85.8749 132.412L90.0743 131.862L91.167 140.205L92.7714 139.995L91.4923 130.229Z" fill="black"/>
<path d="M82.8884 135.819C83.2553 135.3 83.4799 134.676 83.5761 133.951C83.6723 133.226 83.6179 132.566 83.3831 131.981C83.1503 131.382 82.7873 130.908 82.2701 130.528C81.7528 130.147 81.1297 129.922 80.3765 129.822C79.5256 129.709 78.7846 129.838 78.1499 130.237C77.5169 130.621 77.0887 131.175 76.853 131.882L78.3595 132.081C78.5247 131.692 78.7746 131.412 79.1111 131.23C79.4615 131.049 79.865 131.003 80.3253 131.065C80.9111 131.142 81.3613 131.386 81.6619 131.795C81.9765 132.206 82.107 132.72 82.0517 133.352L82.0406 133.435L76.6565 132.721C76.6027 132.913 76.5647 133.092 76.5388 133.288C76.4621 133.973 76.536 134.593 76.7744 135.15C77.0147 135.693 77.3656 136.151 77.8586 136.5C78.3517 136.849 78.9329 137.068 79.6164 137.159C80.2999 137.25 80.92 137.176 81.4908 136.939C82.0615 136.703 82.5215 136.338 82.8884 135.819ZM78.0028 134.021L81.8387 134.53C81.7163 135.025 81.4692 135.389 81.0659 135.648C80.6625 135.907 80.2237 136.005 79.7216 135.938C79.1915 135.868 78.7795 135.657 78.4696 135.318C78.1597 134.979 78.0041 134.546 78.0028 134.021Z" fill="black"/>
<path d="M68.1722 126.981L68.445 127.095C68.7438 127.219 68.822 127.434 68.6923 127.746L67.6014 130.371C67.2774 131.15 67.2758 131.85 67.5838 132.466C67.9047 133.087 68.5069 133.581 69.3904 133.948C70.2349 134.299 70.9916 134.385 71.6625 134.238C72.3334 134.09 72.8483 133.694 73.1887 133.059L71.8114 132.486C71.6406 132.75 71.3875 132.919 71.0521 132.993C70.7166 133.067 70.341 133.018 69.9252 132.845C69.4705 132.656 69.1553 132.388 68.9818 132.072C68.8084 131.756 68.8026 131.403 68.9539 131.039L69.1213 130.637L70.7974 131.333C71.7328 131.722 72.5155 131.819 73.1474 131.655C73.7924 131.496 74.2477 131.061 74.5285 130.385C74.7823 129.774 74.7613 129.202 74.4469 128.675C74.151 128.141 73.6235 127.723 72.8699 127.41C71.9085 127.01 71.0242 127.085 70.1989 127.641C70.3447 127.29 70.3618 126.992 70.2425 126.729C70.1362 126.472 69.8622 126.251 69.4204 126.068L68.6798 125.76L68.1722 126.981ZM69.5533 129.597L69.6505 129.363C69.8795 128.849 70.2213 128.503 70.6757 128.327C71.1301 128.15 71.6497 128.183 72.2214 128.421C72.6112 128.583 72.8776 128.785 73.0229 129.058C73.1735 129.319 73.1803 129.596 73.0615 129.882C72.9265 130.207 72.7069 130.405 72.4028 130.477C72.0987 130.549 71.7361 130.504 71.2944 130.321L69.5533 129.597Z" fill="black"/>
<path d="M57.611 127.035L57.8854 127.232C58.3428 127.56 58.7546 127.734 59.1324 127.763C59.5216 127.799 59.8865 127.749 60.2433 127.59L59.7491 128.569L60.8467 129.356L65.0455 123.502L63.8106 122.616L61.7031 125.555C61.3422 126.058 60.9245 126.399 60.458 126.566C59.9915 126.734 59.5026 126.643 58.9881 126.274L58.4393 125.88L57.611 127.035Z" fill="black"/>
<path d="M49.3517 117.838C49.3068 118.583 49.564 119.29 50.1155 119.929C50.7681 120.686 51.54 121.042 52.4006 121.005L51.7972 121.749L52.6612 122.751L58.1157 118.044L57.123 116.894L54.3744 119.265C53.8204 119.743 53.284 119.983 52.7438 120.003C52.2036 120.023 51.7313 119.799 51.3361 119.341C50.9684 118.915 50.8311 118.476 50.9044 118.022C50.9976 117.57 51.2907 117.113 51.802 116.672L54.7423 114.135L53.7404 112.973L50.7362 115.565C49.8626 116.319 49.4073 117.084 49.3517 117.838Z" fill="black"/>
<path d="M42.0814 103.179L45.8112 102.001C46.4552 101.797 46.8782 101.501 47.0801 101.113C47.2954 100.72 47.2903 100.19 47.0826 99.5329L46.6417 98.1376L45.3671 98.5403L45.7148 99.6405C45.7995 99.9088 45.801 100.1 45.7276 100.241C45.6542 100.383 45.4699 100.5 45.2015 100.585L41.6193 101.717L41.0978 100.067L39.8232 100.469L40.3447 102.12L38.4261 102.726L38.8883 104.188L40.8068 103.582L41.1842 104.776L42.4587 104.373L42.0814 103.179Z" fill="black"/>
<path d="M45.071 91.8838C45.3408 91.3009 45.4373 90.6595 45.3866 89.9296C45.3369 89.2137 45.1526 88.5918 44.8048 88.0518C44.457 87.5118 44.0067 87.1199 43.4238 86.8501C42.8408 86.5803 42.1844 86.4708 41.4545 86.5215C40.7386 86.5712 40.1177 86.7695 39.5777 87.1173C39.0377 87.4651 38.6318 87.9164 38.362 88.4993C38.0922 89.0823 37.9816 89.7246 38.0314 90.4405C38.0821 91.1704 38.2803 91.7913 38.6281 92.3314C38.976 92.8714 39.4403 93.2623 40.0233 93.5321C40.6062 93.8019 41.2476 93.8984 41.9635 93.8486C42.6934 93.7979 43.3293 93.6127 43.8693 93.2649C44.4093 92.9171 44.8012 92.4668 45.071 91.8838ZM43.3292 88.5351C43.8057 88.897 44.0514 89.3877 44.0952 90.0193C44.1401 90.665 43.9646 91.185 43.5418 91.5951C43.1199 92.0194 42.5571 92.2418 41.8552 92.2906C41.1534 92.3393 40.5793 92.1958 40.1028 91.834C39.6273 91.4862 39.3676 90.9965 39.3227 90.3508C39.2789 89.7192 39.4684 89.1982 39.8902 88.774C40.3121 88.3498 40.8599 88.1143 41.5618 88.0655C42.2636 88.0168 42.8528 88.1733 43.3292 88.5351Z" fill="black"/>
<path d="M37.7572 70.5236L46.9391 74.0879L49.3271 67.936L47.9892 67.4166L46.1867 72.06L43.5239 71.0264L44.9598 67.3274L43.6613 66.8233L42.2254 70.5223L39.6807 69.5345L41.4221 65.0485L40.0841 64.5292L37.7572 70.5236Z" fill="black"/>
<path d="M54.811 57.1047L54.6364 57.3431C54.4451 57.6041 54.2174 57.6292 53.945 57.4296L51.6524 55.7497C50.9714 55.2507 50.2913 55.0838 49.6204 55.2376C48.9412 55.4027 48.3188 55.8712 47.7533 56.643C47.2127 57.3807 46.9505 58.0957 46.9356 58.7825C46.9208 59.4694 47.1835 60.0631 47.7207 60.544L48.6023 59.3409C48.3859 59.1125 48.2814 58.8266 48.2888 58.4832C48.2962 58.1398 48.433 57.7865 48.6991 57.4233C48.9902 57.026 49.3252 56.7831 49.6731 56.6892C50.0211 56.5952 50.3653 56.673 50.6831 56.9059L51.0349 57.1637L49.9621 58.6278C49.3633 59.445 49.0845 60.1826 49.0945 60.8354C49.0963 61.4996 49.412 62.0448 50.0021 62.4773C50.5356 62.8682 51.0969 62.9829 51.6831 62.8019C52.2723 62.6406 52.8024 62.2266 53.2847 61.5683C53.9002 60.7284 54.0367 59.8517 53.6914 58.9183C53.9979 59.1429 54.2831 59.2298 54.5667 59.176C54.8421 59.1335 55.1211 58.9193 55.4039 58.5334L55.8779 57.8865L54.811 57.1047ZM51.9429 57.829L52.1472 57.9787C52.5929 58.3227 52.8479 58.7364 52.9124 59.2197C52.9769 59.703 52.822 60.2001 52.4561 60.6995C52.2066 61.04 51.9472 61.2511 51.647 61.3276C51.358 61.4125 51.0872 61.3536 50.8375 61.1706C50.5538 60.9627 50.413 60.7025 50.4151 60.3901C50.4173 60.0777 50.5457 59.7358 50.8285 59.3499L51.9429 57.829Z" fill="black"/>
<path d="M57.2531 46.8299L56.997 47.05C56.5703 47.417 56.3038 47.776 56.1868 48.1364C56.0592 48.5059 56.0216 48.8723 56.0924 49.2568L55.258 48.5453L54.2338 49.426L58.9306 54.8885L60.0828 53.8978L57.7252 51.1558C57.3216 50.6864 57.0889 50.1999 57.0362 49.707C56.9836 49.2142 57.1874 48.7606 57.6675 48.3478L58.1796 47.9075L57.2531 46.8299Z" fill="black"/>
<path d="M68.1409 40.9764C67.4276 40.7568 66.6796 40.8397 65.9282 41.2246C65.0391 41.6801 64.5107 42.346 64.3428 43.1909L63.7627 42.4289L62.5856 43.0319L65.8703 49.4436L67.2228 48.7508L65.5676 45.5199C65.234 44.8687 65.1276 44.2908 65.2357 43.7611C65.3438 43.2315 65.6733 42.8255 66.2118 42.5496C66.7127 42.293 67.1718 42.2633 67.5952 42.4417C68.0124 42.639 68.3876 43.0317 68.6955 43.6328L70.4662 47.0891L71.8312 46.3898L70.022 42.8584C69.4959 41.8315 68.8605 41.2085 68.1409 40.9764Z" fill="black"/>
<path d="M76.5505 43.1817C76.4194 43.4047 76.3941 43.6438 76.4647 43.9162C76.5354 44.1886 76.6771 44.399 76.8965 44.5165C77.1195 44.6477 77.3722 44.6694 77.6446 44.5988C77.917 44.5281 78.1138 44.3899 78.2586 44.1634C78.3933 43.9541 78.4286 43.6978 78.358 43.4254C78.2874 43.153 78.1355 42.9598 77.9126 42.8286C77.6795 42.7146 77.4369 42.6758 77.1645 42.7464C76.8921 42.817 76.6852 42.9724 76.5505 43.1817Z" fill="black"/>
<path d="M91.54 43.0015L97.3463 43.7418L97.5278 42.3181L93.3266 41.7824L94.3908 33.4358L92.7857 33.2312L91.54 43.0015Z" fill="black"/>
<path d="M104.549 39.9082C104.062 40.3169 103.686 40.8625 103.409 41.5395C103.131 42.2166 103.016 42.8688 103.095 43.494C103.168 44.1322 103.398 44.6828 103.802 45.1826C104.205 45.6825 104.751 46.0581 105.454 46.3462C106.248 46.6716 106.997 46.7354 107.712 46.5115C108.422 46.3006 108.977 45.8741 109.385 45.2504L107.979 44.6742C107.72 45.0091 107.407 45.2155 107.035 45.3065C106.65 45.3921 106.249 45.3338 105.819 45.1578C105.272 44.9337 104.899 44.583 104.712 44.1111C104.512 43.6339 104.517 43.1035 104.731 42.507L104.763 42.4288L109.788 44.4882C109.889 44.3166 109.971 44.1527 110.046 43.9704C110.295 43.3271 110.381 42.7086 110.292 42.1094C110.197 41.5234 109.974 40.9911 109.586 40.5279C109.198 40.0648 108.692 39.7052 108.054 39.4438C107.416 39.1823 106.797 39.0962 106.185 39.1799C105.573 39.2636 105.035 39.4994 104.549 39.9082ZM108.817 42.8888L105.236 41.4216C105.48 40.9742 105.812 40.6844 106.268 40.5367C106.724 40.3889 107.173 40.4058 107.642 40.5978C108.137 40.8006 108.482 41.1092 108.695 41.516C108.908 41.9228 108.949 42.3804 108.817 42.8888Z" fill="black"/>
<path d="M119.273 53.2064L119.038 53.0274C118.78 52.8313 118.759 52.6032 118.964 52.3345L120.686 50.0736C121.198 49.402 121.377 48.7251 121.236 48.0515C121.084 47.3693 120.627 46.7383 119.866 46.1585C119.138 45.6043 118.428 45.3288 117.742 45.3012C117.055 45.2735 116.457 45.5251 115.966 46.0533L117.152 46.9571C117.385 46.745 117.673 46.6458 118.016 46.6597C118.359 46.6735 118.71 46.8168 119.068 47.0897C119.46 47.3881 119.696 47.7276 119.784 48.0772C119.871 48.4268 119.787 48.7695 119.548 49.0829L119.284 49.4299L117.84 48.33C117.034 47.7161 116.302 47.4236 115.649 47.4215C114.985 47.4109 114.434 47.7163 113.991 48.2984C113.59 48.8244 113.465 49.3835 113.635 49.9729C113.785 50.5651 114.189 51.1028 114.838 51.5973C115.667 52.2282 116.541 52.3811 117.48 52.0533C117.25 52.3555 117.158 52.639 117.206 52.9236C117.244 53.1997 117.453 53.4827 117.833 53.7726L118.471 54.2586L119.273 53.2064ZM118.602 50.3253L118.448 50.5268C118.096 50.966 117.678 51.2133 117.193 51.2688C116.709 51.3243 116.215 51.1601 115.722 50.785C115.387 50.5292 115.18 50.2659 115.109 49.9643C115.03 49.6738 115.094 49.4041 115.281 49.1579C115.495 48.8781 115.757 48.7421 116.07 48.7501C116.382 48.7581 116.721 48.8929 117.102 49.1828L118.602 50.3253Z" fill="black"/>
<path d="M129.5 55.8393L129.285 55.5791C128.926 55.1456 128.572 54.8725 128.214 54.7488C127.847 54.6143 127.481 54.5699 127.095 54.6335L127.822 53.8126L126.961 52.7721L121.412 57.3664L122.381 58.5369L125.166 56.2308C125.643 55.8359 126.134 55.6123 126.628 55.5689C127.121 55.5254 127.571 55.7376 127.975 56.2253L128.406 56.7456L129.5 55.8393Z" fill="black"/>
<path d="M135.15 66.8343C135.383 66.1253 135.314 65.3758 134.943 64.6174C134.504 63.72 133.848 63.1793 133.007 62.9957L133.779 62.4299L133.198 61.2417L126.727 64.4065L127.394 65.7716L130.655 64.1768C131.313 63.8554 131.892 63.7599 132.42 63.8778C132.947 63.9957 133.347 64.3328 133.613 64.8763C133.86 65.3819 133.881 65.8414 133.695 66.2614C133.49 66.6749 133.09 67.0427 132.484 67.3394L128.995 69.0454L129.669 70.4232L133.233 68.6801C134.27 68.1732 134.905 67.5495 135.15 66.8343Z" fill="black"/>
<path d="M138.455 82.8596L134.548 83.0513C133.873 83.0844 133.389 83.2631 133.095 83.5874C132.787 83.9125 132.657 84.426 132.691 85.1146L132.763 86.5762L134.098 86.5107L134.041 85.3583C134.027 85.0772 134.075 84.8918 134.182 84.7738C134.288 84.6559 134.497 84.5893 134.778 84.5755L138.53 84.3915L138.615 86.1201L139.95 86.0546L139.865 84.326L141.875 84.2274L141.8 82.6956L139.79 82.7941L139.729 81.5434L138.393 81.6089L138.455 82.8596Z" fill="black"/>
<path d="M132.692 93.0238C132.283 93.5189 132.026 94.1147 131.89 94.8336C131.756 95.5385 131.776 96.1869 131.975 96.7976C132.174 97.4083 132.51 97.9017 133.005 98.3109C133.5 98.72 134.107 98.9928 134.826 99.1294C135.531 99.2633 136.182 99.2294 136.793 99.0303C137.403 98.8312 137.911 98.4979 138.32 98.0027C138.729 97.5076 138.999 96.9144 139.133 96.2094C139.27 95.4906 139.236 94.8397 139.037 94.229C138.838 93.6183 138.488 93.1222 137.993 92.713C137.497 92.3039 136.902 92.0475 136.197 91.9136C135.478 91.777 134.816 91.7945 134.205 91.9936C133.594 92.1927 133.101 92.5286 132.692 93.0238ZM133.525 96.7053C133.156 96.2342 133.043 95.6972 133.161 95.0751C133.282 94.4392 133.584 93.981 134.097 93.6918C134.613 93.3887 135.214 93.3167 135.905 93.448C136.596 93.5793 137.115 93.864 137.484 94.3351C137.855 94.7923 137.982 95.332 137.861 95.9678C137.743 96.5899 137.427 97.0455 136.912 97.3486C136.396 97.6516 135.806 97.7401 135.115 97.6088C134.424 97.4775 133.894 97.1763 133.525 96.7053Z" fill="black"/>
<path d="M134.335 115.541L126.361 109.76L122.487 115.103L123.649 115.945L126.573 111.912L128.885 113.589L126.556 116.801L127.684 117.619L130.013 114.407L132.223 116.009L129.398 119.905L130.56 120.747L134.335 115.541Z" fill="black"/>
<path d="M114.43 124.184L114.659 123.998C114.911 123.794 115.137 123.828 115.35 124.09L117.14 126.297C117.672 126.953 118.287 127.288 118.975 127.309C119.674 127.322 120.395 127.027 121.138 126.425C121.849 125.849 122.284 125.224 122.473 124.563C122.662 123.903 122.559 123.262 122.161 122.66L121.003 123.6C121.154 123.876 121.183 124.179 121.088 124.509C120.994 124.839 120.771 125.146 120.422 125.43C120.039 125.74 119.654 125.89 119.293 125.892C118.933 125.894 118.62 125.732 118.371 125.426L118.097 125.087L119.507 123.944C120.293 123.306 120.751 122.663 120.907 122.029C121.074 121.386 120.907 120.779 120.446 120.21C120.03 119.697 119.516 119.443 118.903 119.469C118.292 119.475 117.675 119.741 117.041 120.255C116.232 120.911 115.877 121.724 115.974 122.715C115.734 122.419 115.481 122.263 115.193 122.243C114.915 122.214 114.591 122.35 114.22 122.651L113.597 123.157L114.43 124.184ZM117.388 124.213L117.228 124.016C116.885 123.57 116.743 123.105 116.804 122.621C116.864 122.137 117.14 121.696 117.621 121.306C117.949 121.04 118.254 120.902 118.563 120.904C118.864 120.896 119.111 121.021 119.306 121.262C119.528 121.535 119.598 121.822 119.516 122.124C119.435 122.426 119.224 122.724 118.852 123.025L117.388 124.213Z" fill="black"/>
<path d="M111.119 132.952L111.422 132.805C111.929 132.558 112.278 132.279 112.482 131.96C112.7 131.635 112.829 131.29 112.858 130.9L113.485 131.801L114.699 131.209L111.545 124.732L110.179 125.397L111.762 128.649C112.033 129.205 112.134 129.735 112.06 130.225C111.986 130.715 111.673 131.102 111.104 131.379L110.497 131.675L111.119 132.952Z" fill="black"/>
<path d="M102.129 135.852C102.794 136.19 103.545 136.236 104.351 135.985C105.305 135.688 105.94 135.123 106.249 134.319L106.691 135.169L107.954 134.776L105.813 127.897L104.362 128.349L105.441 131.815C105.658 132.513 105.664 133.101 105.467 133.604C105.27 134.108 104.876 134.451 104.298 134.631C103.761 134.799 103.304 134.749 102.917 134.501C102.54 134.236 102.237 133.785 102.036 133.14L100.882 129.432L99.4178 129.887L100.597 133.676C100.94 134.778 101.459 135.5 102.129 135.852Z" fill="black"/>
<path d="M96.6496 132.485C96.8331 132.303 96.9183 132.078 96.9193 131.796C96.9203 131.515 96.8367 131.276 96.6543 131.106C96.472 130.922 96.2331 130.837 95.9517 130.836C95.6703 130.835 95.4449 130.919 95.2473 131.101C95.0638 131.269 94.9645 131.508 94.9635 131.79C94.9625 132.071 95.0603 132.297 95.2426 132.48C95.439 132.65 95.6637 132.749 95.9452 132.75C96.2266 132.751 96.4661 132.653 96.6496 132.485Z" fill="black"/>
<path d="M54.4361 215V210.568L64.7912 200.98C65.6719 200.128 66.4105 199.361 67.0071 198.679C67.6132 197.997 68.0724 197.33 68.3849 196.676C68.6974 196.013 68.8537 195.298 68.8537 194.531C68.8537 193.679 68.6596 192.945 68.2713 192.33C67.883 191.705 67.3527 191.226 66.6804 190.895C66.008 190.554 65.2457 190.384 64.3935 190.384C63.5033 190.384 62.7268 190.563 62.0639 190.923C61.401 191.283 60.8897 191.799 60.5298 192.472C60.17 193.144 59.9901 193.944 59.9901 194.872H54.152C54.152 192.969 54.5829 191.316 55.4446 189.915C56.3063 188.513 57.5137 187.429 59.0668 186.662C60.6198 185.895 62.4096 185.511 64.4361 185.511C66.5194 185.511 68.3329 185.881 69.8764 186.619C71.4295 187.348 72.6368 188.362 73.4986 189.659C74.3603 190.956 74.7912 192.443 74.7912 194.119C74.7912 195.218 74.5734 196.302 74.1378 197.372C73.7116 198.442 72.9493 199.631 71.8509 200.938C70.7524 202.235 69.2041 203.793 67.206 205.611L62.9588 209.773V209.972H75.1747V215H54.4361ZM90.3842 215.398C88.263 215.398 86.3738 215.033 84.7166 214.304C83.0689 213.565 81.7668 212.552 80.8104 211.264C79.8634 209.967 79.3757 208.471 79.3473 206.776H85.5405C85.5784 207.486 85.8104 208.111 86.2365 208.651C86.6721 209.181 87.2498 209.593 87.9695 209.886C88.6892 210.18 89.4988 210.327 90.3984 210.327C91.3359 210.327 92.1645 210.161 92.8842 209.83C93.6039 209.498 94.1674 209.039 94.5746 208.452C94.9818 207.865 95.1854 207.187 95.1854 206.42C95.1854 205.644 94.9676 204.957 94.532 204.361C94.1058 203.755 93.4903 203.281 92.6854 202.94C91.8899 202.599 90.9429 202.429 89.8445 202.429H87.1314V197.912H89.8445C90.7725 197.912 91.5916 197.751 92.3018 197.429C93.0215 197.107 93.5803 196.662 93.978 196.094C94.3757 195.516 94.5746 194.844 94.5746 194.077C94.5746 193.348 94.3994 192.708 94.049 192.159C93.7081 191.6 93.2251 191.165 92.6001 190.852C91.9846 190.54 91.2649 190.384 90.4411 190.384C89.6077 190.384 88.8454 190.535 88.1541 190.838C87.4628 191.132 86.9089 191.553 86.4922 192.102C86.0755 192.652 85.853 193.295 85.8246 194.034H79.9297C79.9581 192.358 80.4363 190.881 81.3643 189.602C82.2924 188.324 83.5424 187.325 85.1143 186.605C86.6958 185.876 88.4808 185.511 90.4695 185.511C92.477 185.511 94.2337 185.876 95.7393 186.605C97.245 187.334 98.4145 188.319 99.2479 189.56C100.091 190.791 100.507 192.173 100.498 193.707C100.507 195.336 100.001 196.695 98.978 197.784C97.9647 198.873 96.6437 199.564 95.0149 199.858V200.085C97.1551 200.36 98.7839 201.103 99.9013 202.315C101.028 203.518 101.587 205.024 101.577 206.832C101.587 208.49 101.109 209.962 100.143 211.25C99.1863 212.538 97.8653 213.551 96.1797 214.29C94.4941 215.028 92.5623 215.398 90.3842 215.398ZM111.538 208.722L111.553 201.463H112.433L119.422 193.182H126.368L116.979 204.148H115.544L111.538 208.722ZM106.055 215V185.909H112.107V215H106.055ZM119.692 215L113.271 205.497L117.305 201.222L126.78 215H119.692Z" fill="#FF9C00"/>
<path d="M70.2232 230.5C70.106 230.141 69.9516 229.82 69.7598 229.536C69.5716 229.248 69.3461 229.003 69.0833 228.801C68.8241 228.598 68.5293 228.444 68.1991 228.337C67.8688 228.231 67.5066 228.178 67.1124 228.178C66.4661 228.178 65.8784 228.344 65.3493 228.678C64.8202 229.012 64.3994 229.504 64.0869 230.154C63.7744 230.804 63.6181 231.601 63.6181 232.545C63.6181 233.49 63.7761 234.287 64.0922 234.937C64.4082 235.587 64.8362 236.079 65.3759 236.413C65.9157 236.746 66.5229 236.913 67.1977 236.913C67.8227 236.913 68.3731 236.78 68.8489 236.514C69.3283 236.244 69.7012 235.864 69.9676 235.374C70.2374 234.88 70.3724 234.3 70.3724 233.632L70.7772 233.717H67.496V232.545H71.6508V233.717C71.6508 234.616 71.459 235.397 71.0755 236.061C70.6955 236.725 70.17 237.24 69.4988 237.606C68.8312 237.968 68.0641 238.149 67.1977 238.149C66.2318 238.149 65.383 237.922 64.6515 237.467C63.9235 237.013 63.3553 236.366 62.947 235.528C62.5421 234.69 62.3397 233.696 62.3397 232.545C62.3397 231.683 62.4551 230.907 62.6859 230.218C62.9203 229.525 63.2506 228.936 63.6767 228.449C64.1028 227.963 64.6071 227.59 65.1895 227.331C65.7719 227.071 66.4129 226.942 67.1124 226.942C67.6877 226.942 68.2239 227.029 68.7211 227.203C69.2218 227.373 69.6675 227.616 70.0581 227.933C70.4523 228.245 70.7808 228.62 71.0435 229.056C71.3063 229.49 71.4874 229.971 71.5869 230.5H70.2232ZM76.1505 238.192C75.6321 238.192 75.1615 238.094 74.7389 237.899C74.3164 237.7 73.9808 237.414 73.7322 237.041C73.4836 236.665 73.3593 236.21 73.3593 235.678C73.3593 235.209 73.4517 234.829 73.6363 234.538C73.821 234.243 74.0678 234.012 74.3767 233.845C74.6857 233.678 75.0266 233.554 75.3995 233.472C75.7759 233.387 76.1541 233.32 76.534 233.27C77.0312 233.206 77.4343 233.158 77.7432 233.126C78.0557 233.091 78.283 233.032 78.425 232.95C78.5706 232.869 78.6434 232.727 78.6434 232.524V232.482C78.6434 231.956 78.4996 231.548 78.212 231.256C77.9279 230.965 77.4964 230.82 76.9176 230.82C76.3174 230.82 75.8469 230.951 75.506 231.214C75.1651 231.477 74.9254 231.757 74.7869 232.055L73.5937 231.629C73.8068 231.132 74.0909 230.745 74.446 230.468C74.8046 230.187 75.1953 229.992 75.6179 229.882C76.044 229.768 76.463 229.712 76.875 229.712C77.1377 229.712 77.4396 229.744 77.7805 229.808C78.125 229.868 78.457 229.994 78.7766 230.186C79.0997 230.377 79.3679 230.667 79.5809 231.054C79.794 231.441 79.9005 231.96 79.9005 232.609V238H78.6434V236.892H78.5795C78.4943 237.07 78.3522 237.26 78.1534 237.462C77.9545 237.664 77.6899 237.837 77.3597 237.979C77.0294 238.121 76.6264 238.192 76.1505 238.192ZM76.3423 237.062C76.8394 237.062 77.2585 236.965 77.5994 236.77C77.9438 236.574 78.2031 236.322 78.3771 236.013C78.5546 235.704 78.6434 235.379 78.6434 235.038V233.888C78.5902 233.952 78.473 234.01 78.2919 234.064C78.1143 234.113 77.9083 234.158 77.674 234.197C77.4431 234.232 77.2176 234.264 76.9975 234.293C76.7809 234.317 76.6051 234.339 76.4701 234.357C76.1434 234.399 75.838 234.468 75.5539 234.564C75.2734 234.657 75.0461 234.797 74.8721 234.985C74.7017 235.17 74.6164 235.422 74.6164 235.741C74.6164 236.178 74.778 236.509 75.1012 236.732C75.4279 236.952 75.8416 237.062 76.3423 237.062ZM82.195 238V229.818H83.4095V231.097H83.516C83.6865 230.66 83.9617 230.321 84.3417 230.079C84.7216 229.834 85.178 229.712 85.7106 229.712C86.2504 229.712 86.6996 229.834 87.0583 230.079C87.4205 230.321 87.7028 230.66 87.9052 231.097H87.9905C88.2 230.674 88.5142 230.338 88.9333 230.09C89.3523 229.838 89.8548 229.712 90.4407 229.712C91.1723 229.712 91.7706 229.941 92.2358 230.399C92.701 230.853 92.9336 231.562 92.9336 232.524V238H91.6765V232.524C91.6765 231.92 91.5114 231.489 91.1812 231.23C90.8509 230.971 90.462 230.841 90.0146 230.841C89.4393 230.841 88.9937 231.015 88.6776 231.363C88.3616 231.707 88.2035 232.144 88.2035 232.673V238H86.9251V232.396C86.9251 231.931 86.7742 231.556 86.4723 231.272C86.1705 230.985 85.7816 230.841 85.3058 230.841C84.9791 230.841 84.6737 230.928 84.3896 231.102C84.1091 231.276 83.8818 231.517 83.7078 231.826C83.5373 232.132 83.4521 232.485 83.4521 232.886V238H82.195ZM98.6625 238.17C97.8742 238.17 97.1941 237.996 96.6224 237.648C96.0542 237.297 95.6156 236.807 95.3067 236.178C95.0013 235.546 94.8486 234.811 94.8486 233.973C94.8486 233.135 95.0013 232.396 95.3067 231.757C95.6156 231.114 96.0453 230.614 96.5957 230.255C97.1497 229.893 97.796 229.712 98.5347 229.712C98.9608 229.712 99.3816 229.783 99.7971 229.925C100.213 230.067 100.591 230.298 100.932 230.617C101.273 230.933 101.544 231.352 101.747 231.874C101.949 232.396 102.05 233.039 102.05 233.803V234.335H95.7435V233.249H100.772C100.772 232.787 100.68 232.375 100.495 232.013C100.314 231.651 100.055 231.365 99.7172 231.155C99.3834 230.946 98.9892 230.841 98.5347 230.841C98.034 230.841 97.6007 230.965 97.235 231.214C96.8727 231.459 96.594 231.778 96.3987 232.173C96.2033 232.567 96.1057 232.989 96.1057 233.44V234.165C96.1057 234.783 96.2122 235.306 96.4253 235.736C96.6419 236.162 96.942 236.487 97.3255 236.711C97.709 236.931 98.1547 237.041 98.6625 237.041C98.9928 237.041 99.2911 236.995 99.5574 236.903C99.8273 236.807 100.06 236.665 100.255 236.477C100.451 236.285 100.601 236.047 100.708 235.763L101.922 236.104C101.795 236.516 101.58 236.878 101.278 237.19C100.976 237.499 100.603 237.741 100.159 237.915C99.7154 238.085 99.2165 238.17 98.6625 238.17ZM103.963 238V229.818H105.177V231.054H105.262C105.411 230.649 105.681 230.321 106.072 230.069C106.463 229.816 106.903 229.69 107.393 229.69C107.485 229.69 107.601 229.692 107.739 229.696C107.878 229.699 107.982 229.705 108.053 229.712V230.99C108.011 230.979 107.913 230.963 107.761 230.942C107.611 230.917 107.453 230.905 107.286 230.905C106.889 230.905 106.534 230.988 106.221 231.155C105.912 231.319 105.667 231.546 105.486 231.837C105.308 232.125 105.22 232.453 105.22 232.822V238H103.963ZM110.63 227.091V230.841H109.458V227.091H110.63ZM118.664 231.651L117.535 231.97C117.464 231.782 117.359 231.599 117.221 231.422C117.086 231.24 116.901 231.091 116.667 230.974C116.432 230.857 116.132 230.798 115.767 230.798C115.266 230.798 114.849 230.914 114.515 231.145C114.185 231.372 114.019 231.661 114.019 232.013C114.019 232.325 114.133 232.572 114.36 232.753C114.588 232.934 114.943 233.085 115.426 233.206L116.64 233.504C117.372 233.682 117.917 233.953 118.275 234.319C118.634 234.681 118.813 235.148 118.813 235.72C118.813 236.189 118.678 236.608 118.409 236.977C118.142 237.347 117.769 237.638 117.29 237.851C116.811 238.064 116.253 238.17 115.617 238.17C114.783 238.17 114.092 237.989 113.545 237.627C112.998 237.265 112.652 236.736 112.507 236.04L113.7 235.741C113.813 236.182 114.028 236.512 114.344 236.732C114.664 236.952 115.081 237.062 115.596 237.062C116.182 237.062 116.647 236.938 116.992 236.69C117.34 236.437 117.514 236.136 117.514 235.784C117.514 235.5 117.414 235.262 117.215 235.07C117.017 234.875 116.711 234.729 116.299 234.634L114.936 234.314C114.186 234.136 113.636 233.861 113.284 233.488C112.936 233.112 112.762 232.641 112.762 232.077C112.762 231.615 112.892 231.207 113.151 230.852C113.414 230.496 113.771 230.218 114.222 230.015C114.676 229.813 115.191 229.712 115.767 229.712C116.576 229.712 117.212 229.889 117.674 230.244C118.139 230.599 118.469 231.068 118.664 231.651Z" fill="#FF9C00"/>
<path d="M89.4423 301.503C89.4423 300.675 88.7707 300.003 87.9423 300.003C87.1139 300.003 86.4423 300.675 86.4423 301.503L89.4423 301.503ZM396.053 208.422C396.562 212.811 400.533 215.956 404.922 215.447C409.311 214.938 412.456 210.967 411.947 206.578C411.438 202.189 407.467 199.044 403.078 199.553C398.689 200.062 395.544 204.033 396.053 208.422ZM87.9425 344L86.4425 344C86.4425 344.828 87.114 345.5 87.9425 345.5L87.9425 344ZM228.5 344L228.5 345.5C229.329 345.5 230 344.828 230 344L228.5 344ZM228.5 207.5L228.5 206C228.102 206 227.721 206.158 227.439 206.439C227.158 206.721 227 207.102 227 207.5L228.5 207.5ZM86.4423 301.503L86.4425 344L89.4425 344L89.4423 301.503L86.4423 301.503ZM87.9425 345.5L228.5 345.5L228.5 342.5L87.9425 342.5L87.9425 345.5ZM230 344L230 207.5L227 207.5L227 344L230 344ZM228.5 209L404 209L404 206L228.5 206L228.5 209Z" fill="#FF9C00"/>
</g>
<defs>
<filter id="filter0_d_410_871" x="0" y="0" width="429.001" height="366.5" filterUnits="userSpaceOnUse" color-interpolation-filters="sRGB">
<feFlood flood-opacity="0" result="BackgroundImageFix"/>
<feColorMatrix in="SourceAlpha" type="matrix" values="0 0 0 0 0 0 0 0 0 0 0 0 0 0 0 0 0 0 127 0" result="hardAlpha"/>
<feOffset dy="4"/>
<feGaussianBlur stdDeviation="8.5"/>
<feComposite in2="hardAlpha" operator="out"/>
<feColorMatrix type="matrix" values="0 0 0 0 1 0 0 0 0 1 0 0 0 0 1 0 0 0 0.25 0"/>
<feBlend mode="normal" in2="BackgroundImageFix" result="effect1_dropShadow_410_871"/>
<feBlend mode="normal" in="SourceGraphic" in2="effect1_dropShadow_410_871" result="shape"/>
</filter>
</defs>
</svg>
