<svg width="274" height="47" viewBox="0 0 274 47" fill="none" xmlns="http://www.w3.org/2000/svg">
<g filter="url(#filter0_d_403_480)">
<path d="M15.2969 18.1016L9.32031 11.9688V5.79688H15.3164L15.2969 18.1016ZM19.4375 34V14.1953H13.5781V5.79688H28.6172L34.7891 17.5156L40.9219 5.79688H50.1016V34H40.9219V22.2812L35.0234 34H34.5156L28.6172 22.2812V34H19.4375ZM52.0547 34V14.1953H46.1953V5.79688H76.2344V14.1953H61.2344V17.4375H70.9219V22.3594H61.2344V25.6016H78.6172V34H52.0547ZM101.43 5.79688V14.1953H92.4844V34H83.3047V14.1953H74.3594V5.79688H101.43ZM113.09 12.0469L109.047 23.2188H116.82L113.09 12.0469ZM96.3906 14.1953V5.79688H120.062L129.496 34H118.832L117.055 28.9219H108.676L106.898 34H96.7812L103.285 14.1953H96.3906ZM129.745 5.79688L139.667 34H154.648L164.706 5.79688H153.398L146.913 27.457L140.507 5.79688H129.745ZM170.47 34V14.1953H164.611V5.79688H194.65V14.1953H179.65V17.4375H189.337V22.3594H179.65V25.6016H197.033V34H170.47ZM197.033 34V5.79688H215.392C217.658 6.00521 219.52 6.60417 220.978 7.59375C222.436 8.58333 223.504 9.91146 224.181 11.5781C224.702 14.0781 224.728 16.0052 224.259 17.3594C223.791 18.7135 222.97 19.8464 221.798 20.7578C220.627 21.6693 218.947 22.3854 216.759 22.9062L218.869 25.6016H227.306V34H216.173L207.228 24.6836V34H197.033ZM207.228 12.8281V18.0234H214.337C214.715 18.0234 215.125 17.8867 215.568 17.6133C216.011 17.3268 216.245 16.6172 216.271 15.4844C216.206 14.4036 215.939 13.694 215.47 13.3555C215.015 13.0039 214.63 12.8281 214.318 12.8281H207.228ZM229.455 18.1211V5.79688H235.451V18.1211H229.455ZM264.88 5.79688L254.528 19.8984L264.88 34H253.747L247.927 25.2891L242.184 34H231.052L241.403 19.8984L231.052 5.79688H242.184L247.927 14.5078L253.747 5.79688H264.88Z" fill="white"/>
</g>
<defs>
<filter id="filter0_d_403_480" x="0.320312" y="0.796875" width="273.559" height="46.2031" filterUnits="userSpaceOnUse" color-interpolation-filters="sRGB">
<feFlood flood-opacity="0" result="BackgroundImageFix"/>
<feColorMatrix in="SourceAlpha" type="matrix" values="0 0 0 0 0 0 0 0 0 0 0 0 0 0 0 0 0 0 127 0" result="hardAlpha"/>
<feOffset dy="4"/>
<feGaussianBlur stdDeviation="4.5"/>
<feComposite in2="hardAlpha" operator="out"/>
<feColorMatrix type="matrix" values="0 0 0 0 0 0 0 0 0 0 0 0 0 0 0 0 0 0 0.25 0"/>
<feBlend mode="normal" in2="BackgroundImageFix" result="effect1_dropShadow_403_480"/>
<feBlend mode="normal" in="SourceGraphic" in2="effect1_dropShadow_403_480" result="shape"/>
</filter>
</defs>
</svg>
